<?xml version="1.0" standalone="no"?>
<!DOCTYPE svg PUBLIC "-//W3C//DTD SVG 1.1//EN" "http://www.w3.org/Graphics/SVG/1.1/DTD/svg11.dtd" >
<svg xmlns="http://www.w3.org/2000/svg">
<metadata>
Created by FontForge 20120731 at Tue Feb 16 15:28:23 2016
 By Ads
</metadata>
<defs>
<font id="iconfont" horiz-adv-x="1024" >
  <font-face 
    font-family="iconfont"
    font-weight="500"
    font-stretch="normal"
    units-per-em="1024"
    panose-1="2 0 6 3 0 0 0 0 0 0"
    ascent="896"
    descent="-128"
    x-height="792"
    bbox="0 -128 1026 896"
    underline-thickness="50"
    underline-position="-100"
    unicode-range="U+0078-E6D2"
  />
<missing-glyph horiz-adv-x="374" 
d="M34 0v682h272v-682h-272zM68 34h204v614h-204v-614z" />
    <glyph glyph-name=".notdef" horiz-adv-x="374" 
d="M34 0v682h272v-682h-272zM68 34h204v614h-204v-614z" />
    <glyph glyph-name=".null" horiz-adv-x="0" 
 />
    <glyph glyph-name="nonmarkingreturn" horiz-adv-x="341" 
 />
    <glyph glyph-name="x" unicode="x" horiz-adv-x="1001" 
d="M281 543q-27 -1 -53 -1h-83q-18 0 -36.5 -6t-32.5 -18.5t-23 -32t-9 -45.5v-76h912v41q0 16 -0.5 30t-0.5 18q0 13 -5 29t-17 29.5t-31.5 22.5t-49.5 9h-133v-97h-438v97zM955 310v-52q0 -23 0.5 -52t0.5 -58t-10.5 -47.5t-26 -30t-33 -16t-31.5 -4.5q-14 -1 -29.5 -0.5
t-29.5 0.5h-32l-45 128h-439l-44 -128h-29h-34q-20 0 -45 1q-25 0 -41 9.5t-25.5 23t-13.5 29.5t-4 30v167h911zM163 247q-12 0 -21 -8.5t-9 -21.5t9 -21.5t21 -8.5q13 0 22 8.5t9 21.5t-9 21.5t-22 8.5zM316 123q-8 -26 -14 -48q-5 -19 -10.5 -37t-7.5 -25t-3 -15t1 -14.5
t9.5 -10.5t21.5 -4h37h67h81h80h64h36q23 0 34 12t2 38q-5 13 -9.5 30.5t-9.5 34.5q-5 19 -11 39h-368zM336 498v228q0 11 2.5 23t10 21.5t20.5 15.5t34 6h188q31 0 51.5 -14.5t20.5 -52.5v-227h-327z" />
    <glyph glyph-name="uniE600" unicode="&#xe600;" 
d="M817 142q84 106 84 242q0 79 -31 151t-83 124t-124 83t-151 31t-151 -31t-124 -83t-83 -124t-31 -151q0 -106 52 -195.5t141.5 -141.5t195.5 -52q136 0 242 84l147 -84zM512 149q-97 0 -166 69t-69 166t69 166t166 69q24 0 47.5 -5t44 -13.5t39.5 -21.5t35 -29t29 -35
t21.5 -39.5t13.5 -44t5 -47.5q0 -23 -4.5 -45.5t-13.5 -43.5l-51 89l-166 -166l89 -51q-43 -18 -89 -18z" />
    <glyph glyph-name="uniE601" unicode="&#xe601;" 
d="M512 820q-86 0 -159 -42t-115.5 -115.5t-42.5 -159.5q0 -45 10.5 -83t30.5 -68t44.5 -58.5t54.5 -62.5t59.5 -71t61 -92.5t56.5 -119.5q22 56 49 104.5t53 82t53 65t50.5 55t44.5 51t35.5 54.5t23 63.5t8.5 79.5q0 132 -93 224.5t-224 92.5zM514 358q-24 0 -46.5 7.5
t-40.5 21t-32 32t-21.5 41t-7.5 46.5q0 61 43.5 104.5t105 43.5t104.5 -43.5t43 -104.5q0 -73 -58 -118q-40 -29 -90 -30z" />
    <glyph glyph-name="uniE602" unicode="&#xe602;" 
d="M170 167h684q11 0 19 -7.5t8 -18.5q0 -5 -2.5 -10t-6 -8.5t-8 -5.5t-10.5 -2h-684q-6 0 -10.5 2t-8 5.5t-6 8.5t-2.5 10q0 10 6.5 17.5t15.5 8.5h5zM170 62h526q11 0 19 -7.5t8 -18.5q0 -6 -2.5 -10.5t-6 -8t-8 -5.5t-10.5 -2h-526q-11 0 -19 7.5t-8 18.5q0 10 6.5 17
t15.5 9h5zM854 758h-684q-6 0 -10.5 -2t-8 -5.5t-6 -8t-2.5 -10.5v-308l192 167l69 -69l119 172l304 -304h-251l-59 238l-87 -133l95 -105h-49l-142 147l-121 -147h-70v-26q0 -11 8 -19t19 -8h684q11 0 19 8t8 19v368q0 11 -7.5 18.5t-17.5 7.5h-2zM170 273h684q11 0 19 -8
t8 -18.5t-8 -18.5t-19 -8h-684q-11 0 -19 8t-8 18t7 17.5t16 9.5h4z" />
    <glyph glyph-name="uniE603" unicode="&#xe603;" 
d="M857 204l-6 -71q-1 -10 -8.5 -16t-17.5 -6l-432 30zM496 105l-180 -82q-9 -4 -18 -0.5t-13 12.5l-42 93zM841 725q-1 10 -8.5 16.5t-16.5 5.5l-663 -58q-9 -1 -15.5 -8.5t-5.5 -17.5l33 -377l189 198l68 -57l93 163l297 -248l-225 -20l-72 209l-68 -126l94 -88l-44 -2
l-139 120l-98 -142l-95 -9l8 -94q1 -10 8.5 -16t17.5 -6l662 58q7 1 12 4.5t7.5 9.5t2.5 12zM901 418l39 -82q4 -9 0.5 -18t-12.5 -14l-15 -6zM96 497l28 10l17 -135l-57 93q-2 4 -2 9t1 9t4 7.5t7 5.5q1 0 2 1zM163 169q-10 1 -16.5 8.5t-5.5 17.5l10 108zM875 632
q10 -1 16.5 -8.5t5.5 -17.5l-8 -124z" />
    <glyph glyph-name="uniE604" unicode="&#xe604;" 
d="M313 680v99q0 10 7.5 17.5t17.5 7.5q4 0 8 -1.5t7 -3.5t5 -5t3.5 -7t1.5 -8v-99q0 -11 -7.5 -18t-17.5 -7q-9 0 -16 5.5t-9 14.5v5zM810 729h-74v-49q0 -11 -4 -20t-10.5 -15.5t-16 -10.5t-19.5 -4t-19 4t-16 10.5t-11 15.5t-4 20v49h-248v-49q0 -21 -14.5 -35.5
t-35.5 -14.5q-14 0 -25.5 6.5t-18 18t-6.5 25.5v49h-74q-21 0 -35.5 -14.5t-14.5 -34.5v-95h696v95v3q-1 19 -14.5 32t-32.5 14h-1h-2zM661 680v99q0 5 2 9.5t5.5 8t8 5.5t9.5 2t9.5 -2t8 -5.5t5.5 -8t2 -9.5v-99q0 -5 -2 -10t-5.5 -8t-8 -5t-9.5 -2q-9 0 -16 6t-9 15v4z
M164 530v-447q0 -21 14.5 -35.5t35.5 -14.5h596q21 0 35.5 14.5t14.5 35.5v447h-696zM534 205l-52 -53h-1l-52 53l-91 91l52 53l92 -92l196 197l53 -52z" />
    <glyph glyph-name="uniE605" unicode="&#xe605;" 
d="M844 712h-664q-19 0 -33 -14t-14 -33v-474q0 -20 14 -33.5t33 -13.5h143v-143l189 143h332q12 0 23 6t17.5 17t6.5 24v474q0 18 -12.5 31.5t-30.5 15.5h-4zM512 215q-20 0 -34 14t-14 34q0 12 6.5 23t17.5 17.5t24 6.5t24 -6.5t17 -17.5t6 -23q0 -13 -5.5 -23.5
t-15.5 -17t-23 -7.5h-3zM603 431l-56 -57q-7 -7 -7 -17v-19h-57v36q0 6 2 12.5t5 11.5t8 9l65 64q20 19 20 48q0 51 -71 51q-32 0 -51.5 -12t-19.5 -39q0 -5 1.5 -11.5t3.5 -12.5h-1q2 -4 2 -8q0 -11 -8.5 -19.5t-20.5 -8.5q-7 0 -12.5 2.5t-9.5 7.5t-6 12q-6 19 -6 38
q0 25 10 46t27.5 34.5t40.5 20.5t50 7q55 0 91.5 -28.5t36.5 -79.5q0 -10 -1.5 -20t-4.5 -18.5t-7 -17t-9.5 -16t-11.5 -13.5q-1 0 -1 -1q-2 -1 -2 -2z" />
    <glyph glyph-name="uniE606" unicode="&#xe606;" 
d="M235.5 440q-26.5 0 -45 -5.5t-27.5 -12.5t-13.5 -21.5t-5.5 -23t-1 -25.5v-78q0 -9 3.5 -16.5t9 -13t13 -9t16.5 -3.5h4v-69q0 -18 12.5 -25t34 -7t34 7t12.5 25v69h4q11 0 21 5.5t15.5 15t5.5 21.5v78q0 17 -1 25.5t-5.5 22.5t-13.5 21.5t-27.5 13t-45 5.5zM788.5 440
q-22.5 0 -39 -3t-26 -10.5t-15.5 -14.5t-8.5 -19.5t-3 -19.5t-0.5 -21v-78q0 -9 3.5 -16.5t9 -13t13 -9t16.5 -3.5h4v-69q0 -18 12.5 -25t34 -7t34 7t12.5 25v69h4q17 0 29.5 12t12.5 30v78q0 14 -0.5 21.5t-3 19.5t-8.5 19t-15.5 14.5t-26 10.5t-39 3zM236 601
q18 0 34 -9.5t25.5 -25.5t9.5 -34q0 -29 -20.5 -49t-49 -20t-49 20t-20.5 48.5t20.5 49t49.5 20.5zM788 601q19 0 35 -9.5t25.5 -25.5t9.5 -34q0 -29 -20.5 -49t-49.5 -20q-7 0 -13.5 1t-13 4t-12 6.5t-10 8t-8.5 10.5t-6.5 12t-4 13t-1.5 14q0 28 20.5 48.5t48.5 20.5z
M512 744q30 0 56 -15t40.5 -40.5t14.5 -55.5q0 -46 -32.5 -78.5t-78.5 -32.5q-30 0 -55.5 14.5t-40 40.5t-14.5 56q0 46 32 78.5t78 32.5zM512 486q-65 0 -101.5 -27t-36.5 -61v-170q0 -18 12 -30t29 -12h14v-138q0 -10 6.5 -16.5t15.5 -6.5h1l119 -1l1 1q9 0 16 6.5t7 16.5
v138h14q17 0 29 12t12 30v170q0 22 -14.5 41.5t-47 33t-76.5 13.5z" />
    <glyph glyph-name="uniE607" unicode="&#xe607;" 
d="M732 76l-14 -52l-238 64zM248 84l33 -124l314 80zM162 557l10 -214l-59 201zM780 220l32 -120l-32 -8v128zM726 808q-30 0 -58 -9t-51 -26.5t-40 -40t-26.5 -51t-9.5 -58.5q0 -36 12 -64t32.5 -52t43.5 -49t50.5 -66.5t46.5 -92.5q20 50 47 90.5t50 64.5t43.5 47.5
t32.5 53t12 68.5q0 77 -54 131t-131 54zM728 539q-24 0 -44 11.5t-31.5 31t-11.5 43.5q0 36 25.5 61t61.5 25q17 0 33 -6.5t27.5 -18.5t18.5 -28t7 -33q0 -36 -25.5 -61t-60.5 -25zM347 383h235q7 0 12.5 -3t8.5 -8.5t3 -11.5q0 -5 -2 -9.5t-5 -7.5t-7.5 -5t-9.5 -2h-235
q-7 0 -12.5 3t-8.5 8.5t-3 12.5q0 4 2 8.5t5 7.5t7.5 5t9.5 2zM347 265h198q9 0 16 -6.5t7 -16.5q0 -7 -3 -12.5t-8.5 -8.5t-11.5 -3h-198q-7 0 -12.5 3.5t-8.5 8.5t-3 11.5t3 12t8.5 8.5t12.5 3zM347 619h118q4 0 8.5 -2t7.5 -5t5 -7.5t2 -9t-2 -9t-5 -7.5t-7.5 -5t-8.5 -2
h-118q-10 0 -17 7t-7 16q0 5 2 9.5t5 7.5t7.5 5t9.5 2zM347 501h165q9 0 16 -7t7 -16q0 -7 -3 -12.5t-8.5 -8.5t-11.5 -3h-165q-10 0 -17 7t-7 17q0 3 1.5 7t3.5 6.5t5 5t6.5 3.5t7.5 1zM700 267v-120h-471v566h259q10 0 17 7t7 17q0 4 -1.5 7.5t-3.5 6.5t-5 5t-6.5 3
t-7.5 1h-259q-13 0 -24 -6t-17 -17t-6 -24v-566q0 -19 13.5 -33t33.5 -14h471q20 0 33.5 14t13.5 33v84z" />
    <glyph glyph-name="uniE608" unicode="&#xe608;" 
d="M512 809q-131 0 -224 -93t-93 -225q0 -45 10.5 -82.5t30.5 -68t44.5 -59t54.5 -62.5t59.5 -71t61 -92.5t56.5 -119.5q22 56 49 105t53 82t53 64.5t50.5 55t44.5 51t35.5 54.5t23 63.5t8.5 79.5q0 132 -93 225t-224 93zM247 494q0 110 77.5 187.5t187.5 77.5
q43 0 83.5 -13.5t73 -38t57 -57t38 -73t13.5 -83.5q0 -56 -20.5 -101.5t-53 -81.5t-67.5 -70t-70 -84t-54 -107q-19 58 -54 109.5t-70 87.5t-67.5 72t-53 80t-20.5 95zM514 593q41 0 70 -29t29 -70q0 -11 -2.5 -22.5t-7.5 -21t-11.5 -18t-15 -15.5t-18.5 -11.5t-21 -7
t-23 -2.5q-40 0 -69 28.5t-29 69.5q0 6 0.5 11.5t2 11t3.5 11t4 10.5t5 9.5t7 8.5q29 37 76 37z" />
    <glyph glyph-name="uniE609" unicode="&#xe609;" 
d="M865 435q0 11 -7.5 18.5t-18 7.5t-18 -7.5t-7.5 -18.5v-384h-614v615h379q10 0 17.5 7.5t7.5 17.5q0 7 -3.5 13t-9 9.5t-12.5 3.5h-379q-22 0 -37 -15t-15 -36v-615q0 -21 15 -36t37 -15h614q21 0 36 15t15 36v384zM331 182l40 149l110 -109zM885 628l2 3q9 7 15.5 16
t10 20.5t3.5 23.5q0 21 -10 38.5t-27.5 28t-38.5 10.5q-32 0 -54 -22h-1l-9 -9zM754 715l-186 -186l-175 -175l109 -108l361 361z" />
    <glyph glyph-name="uniE60A" unicode="&#xe60a;" 
d="M896 348q11 0 18.5 7.5t7.5 18.5v266q0 14 -7 25.5t-19 18.5t-26 7h-716q-22 0 -37 -15t-15 -36v-512q0 -14 7 -25.5t19 -18.5t26 -7h716q22 0 37 15t15 36v67h-3l-343 341l-133 -193l-78 78l-211 -184v403h716v-266q0 -11 7.5 -18.5t18.5 -7.5zM523 195l55 -2l-107 119
l99 150l66 -268l234 -64v-2h-715l208 232z" />
    <glyph glyph-name="uniE60B" unicode="&#xe60b;" 
d="M307 663v102q0 11 7.5 18.5t18 7.5t18 -7.5t7.5 -18.5v-102q0 -11 -7.5 -18.5t-18 -7.5t-18 7.5t-7.5 18.5zM819 714h-77v-51q0 -21 -15 -36t-36 -15t-36 15t-15 36v51h-256v-51q0 -10 -4 -19.5t-11 -16.5t-16.5 -11t-19.5 -4q-21 0 -36 15t-15 36v51h-77q-21 0 -36 -15
t-15 -36v-97h716v97q0 21 -15 36t-36 15zM666 663v102q0 7 3 13t9 9.5t13 3.5q11 0 18.5 -7.5t7.5 -18.5v-102q0 -11 -7.5 -18.5t-18 -7.5t-18 7.5t-7.5 18.5zM154 509v-460q0 -22 15 -37t36 -15h614q21 0 36 15t15 37v460h-716zM819 49h-614v409h614v-409zM640 279h-102
v102q0 11 -7.5 18.5t-18.5 7.5q-7 0 -13 -3.5t-9.5 -9.5t-3.5 -13v-102h-102q-20 0 -25 -19l-1 -7q0 -7 3.5 -12.5t9.5 -9t13 -3.5h102v-103q0 -10 7.5 -17.5t18.5 -7.5t18.5 7.5t7.5 17.5v103h102q11 0 18.5 7.5t7.5 18t-7.5 18t-18.5 7.5z" />
    <glyph glyph-name="uniE60C" unicode="&#xe60c;" 
d="M870 758h-716q-14 0 -26 -7t-19 -19t-7 -25v-512q0 -22 15 -37t37 -15h154v-153l205 153h357q22 0 37 15t15 37v512q0 13 -7 25t-19 19t-26 7zM870 195h-381l-130 -98v98h-205v512h716v-512zM532 650q-55 0 -91 -28t-36 -78q0 -18 4 -34q0 -1 0.5 -1.5t0.5 -1.5
q6 -18 25 -18q7 0 12.5 3.5t9 9.5t3.5 13q0 3 -1 7q-3 12 -3 22q0 55 76.5 55t76.5 -55q0 -31 -22 -51l-67 -67q-14 -15 -14 -35l1 -32h51l-1 22q0 10 8 17l58 58q37 36 37 88q0 71 -70 96q-26 10 -58 10zM532 318q16 0 27 -11.5t11 -27t-11 -27t-27 -11.5t-27 11.5
t-11 27.5q0 10 5 19t14 14t19 5z" />
    <glyph glyph-name="uniE60D" unicode="&#xe60d;" 
d="M831 768h-649q-27 0 -46 -19t-19 -46v-648q0 -18 9 -33t24 -23.5t32 -8.5h567h1h81q27 0 46 19t19 46v80v2v566q0 14 -5.5 26t-14 20.5t-20.5 13.5t-25 5zM831 103q0 -26 -10 -37t-37 -11h-46v1h-513q-24 0 -33.5 11.5t-9.5 37.5v554q0 25 11 35t36 10h554q26 0 37 -10.5
t11 -37.5v-509v-44zM658 308q107 136 107 303q0 80 -26 157h-214q46 -72 46 -157q0 -30 -5.5 -58t-16.5 -55l-59 102q-2 4 -6.5 4.5t-7.5 -2.5l-192 -192q-3 -3 -2.5 -8t4.5 -7l101 -58q-13 -5 -26.5 -9.5t-27.5 -7t-28.5 -4t-29.5 -1.5q-43 0 -83 11.5t-75 33.5v-213
q38 -13 77.5 -19.5t80.5 -6.5q167 0 303 107l157 -90q6 -4 11.5 1t1.5 12z" />
    <glyph glyph-name="uniE60E" unicode="&#xe60e;" 
d="M512 623q-50 0 -85.5 -35.5t-35.5 -85.5t35.5 -85.5t85.5 -35.5t85.5 35.5t35.5 85.5q0 33 -16.5 60.5t-44 44t-60.5 16.5zM512 793q-111 0 -205.5 -54.5t-149 -149t-54.5 -205.5t54.5 -205.5t149 -149t205.5 -54.5q56 0 109 14.5t98 41t82.5 64t64 82.5t41 98t14.5 109
q0 67 -20.5 129.5t-58.5 112.5t-88 88t-112.5 58.5t-129.5 20.5zM723 140q-4 0 -8.5 4t-6.5 7l-3 4q-3 19 -9 37t-14.5 34.5t-19 31t-23.5 26.5t-27.5 21.5t-30.5 16.5t-33.5 10.5t-35.5 3.5q-72 0 -126.5 -51.5t-66.5 -129.5l-6 -10q-5 -4 -12 -5q-15 -1 -22.5 2.5
t-7.5 8.5v4q2 46 21 88t52.5 73t75.5 48q-34 22 -54 58.5t-20 79.5q0 45 22.5 83t60.5 60.5t83 22.5q69 0 117.5 -48.5t48.5 -117.5q0 -28 -9.5 -54.5t-26 -47.5t-38.5 -36q32 -13 59 -34t46.5 -48t31 -59.5t12.5 -67.5l-5 -9q-9 -7 -25 -6z" />
    <glyph glyph-name="uniE60F" unicode="&#xe60f;" 
d="M523 311q-21 3 -35.5 14t-19.5 24.5t-7.5 27.5t-1 22t-0.5 8q-2 -1 1 18q19 11 32 33t16 39l3 17v85q-1 3 -2 9t-7 21t-14 26t-24 20.5t-36 9.5l-60 25q-22 0 -39 -11.5t-25.5 -28t-14 -32.5t-6.5 -28l-1 -11v-78q0 -21 12.5 -46t25.5 -40l13 -14q-1 0 0 -18q-1 0 0 -8
t-1 -21.5t-6 -27t-16 -24t-30 -12.5q-27 -3 -54 -13t-47 -21.5t-33 -20.5t-20 -15q-11 -14 -17 -41.5t-7 -48.5v-20h589q-19 96 -34 109q-1 1 -3 4q-60 57 -131 68zM896 221q-52 48 -123 59q-17 2 -29 11.5t-16.5 21t-6.5 22.5t-2 18v7l1 15q16 8 28.5 26.5t16.5 32.5l4 14
v91q-1 3 -2.5 8.5t-7 18.5t-13 23t-21.5 18t-30 8l-50 19q-14 0 -25.5 -5t-19 -13.5t-14 -18.5t-10 -20t-6 -18.5t-3.5 -13.5l-1 -6q1 -46 0 -85q0 -8 2.5 -17t7 -16.5t10 -15.5t10.5 -13.5t9.5 -10.5t7.5 -7l3 -3q-1 0 -7 -14l1 -1q0 -2 1.5 -5t2 -7t0 -10t-2.5 -12
q57 -34 75.5 -46.5t23.5 -18.5q16 -20 31 -125l181 -1q-2 11 -4.5 24.5t-9.5 37t-12 28.5z" />
    <glyph glyph-name="uniE610" unicode="&#xe610;" 
d="M845 711v-189h46v189h-46zM133 522h47v189h-47v-189zM511 633q-44 0 -80.5 21t-58.5 57h-145v-188h96v-476h379v476h95v188h-147q-14 -23 -35 -40.5t-48 -27.5t-56 -10z" />
    <glyph glyph-name="uniE611" unicode="&#xe611;" 
d="M741 541q4 4 12.5 9.5t17.5 10.5t17.5 9.5t13.5 7.5l5 3q0 1 1 4t-2.5 7.5t-11.5 5.5h-4h-5l-6 -2q-3 0 -7 -1l-8 -2l-8 -2l-10 -2q-4 -1 -9 -2t-9 -3q-1 5 -3 8l-8 8q-4 5 -13 -2.5t-5 -12.5l5 -7q-13 -4 -27 -7l-18 24q-12 13 -31.5 26.5t-26.5 8t3 -27t22 -35.5
l20 -22q-2 -3 -3.5 -7t-4 -8.5t-4.5 -9.5l-5 6q-5 5 -14 -3t-5 -13l7 -9q1 -1 3 -2t3 -1q-10 -24 -17 -41t-8 -23q0 -8 3.5 -12t6.5 -4l4 -1q36 46 51 59q3 2 6 4.5t5.5 5t5.5 4.5t5 4t4 3l25 -28q-9 -41 -7 -43l10 -10l5 6l11 10l10 10q4 -1 7.5 -0.5t6.5 2.5q5 5 4 13
l30 21q-5 8 -8 11q-2 2 -43 1l-24 30q3 3 7.5 6.5t8.5 7t9 7.5zM881 192l-1 524q0 14 -12 24t-27 10h-310q-9 0 -18 -4.5t-14.5 -13t-5.5 -17.5v-523q0 -36 6 -53q3 -9 10 -17.5t12 -12.5l6 -5l112 -90q21 -17 50 -17q28 0 50 19l105 88q2 2 4.5 4t10 10.5t12.5 18.5
q6 11 8 24.5t2 22.5v8zM842 153q-3 -7 -8 -14.5t-9 -11.5l-4 -4l-88 -75q-21 -18 -45 -18q-7 0 -13.5 2t-12 4.5t-9.5 5.5t-6 4l-2 2l-92 73l-5 5q-3 3 -9 10.5t-9 13.5q-1 4 -2 9.5t-1.5 11.5t-1 11t-0.5 8v3v493q0 33 31 33l259 1q9 0 15.5 -2t10 -6.5t4.5 -10t1 -14.5
l1 -492q-1 -27 -5 -42zM688.5 195.5q-24.5 -0.5 -41.5 -18t-16.5 -42t18 -41.5t42 -16.5t41.5 18t16.5 42t-18 41.5t-42 16.5zM690 102q-14 0 -24 10t-10.5 24t9.5 24t24 10.5t24.5 -9.5t10.5 -24t-10 -24.5t-24 -10.5zM479 114q-13 18 -13 85v383l-101 90q-6 6 -14.5 8
t-16.5 0t-14 -8l-208 -208q-9 -10 -9 -23t9 -22l333 -316q30 -27 59 -42.5t44 -16.5l14 -2l-60 49q-18 15 -23 23z" />
    <glyph glyph-name="uniE612" unicode="&#xe612;" 
d="M907 311q-6 5 -19 13.5t-30 18t-39.5 21t-45 22.5t-48.5 23q7 10 7 23v35q0 10 -6 14.5t-11.5 5t-19.5 0.5h-3q-13 0 -18.5 -0.5t-11 -5t-5.5 -14.5v-26q-21 9 -40.5 18t-37.5 17l3 95q0 31 -7 74.5t-23.5 81.5t-35.5 38t-35 -38t-23.5 -81.5t-7.5 -74.5l3 -93l-78 -36
v25q0 10 -6 14.5t-11.5 5t-19.5 0.5h-3q-10 0 -14.5 -0.5t-10 -2t-8 -6t-2.5 -11.5v-35q0 -12 7 -22q-161 -76 -185 -99q-11 -11 -15 -22t-2 -19t6 -14t8 -9l3 -3q174 37 237 37h102l4 -117q-11 -8 -20.5 -15.5t-22 -17.5t-22.5 -18.5t-19 -16.5t-14 -13.5t-5 -7.5
q0 -6 1.5 -16.5t2.5 -18.5t1 -7q79 9 112 10q15 -23 37 -23t37 23l109 -10q4 29 4 42q0 3 -9.5 13t-26 23.5t-31.5 25.5t-32 24l5 120h98q18 0 49 -4t62 -9.5t60 -11t47 -8.5l19 -4q4 3 9.5 8.5t6.5 23t-16 35.5z" />
    <glyph glyph-name="uniE613" unicode="&#xe613;" 
d="M251 665h77v-97h-77v97zM377 665h77v-97h-77v97zM377 519h77v-97h-77v97zM251 374h77v-97h-77v97zM377 374h77v-97h-77v97zM503 665h77v-97h-77v97zM503 471v-388h-78v145h-174v-145h-49v630h437v-217l48 14v252h-533v-728h97h174h78v-48h388v485h-388zM551 422h78v-97
h-78v97zM697 34h-146v194h146v-194zM736 325h-78v97h78v-97zM842 180h-77v97h77v-97zM842 325h-77v97h77v-97z" />
    <glyph glyph-name="uniE614" unicode="&#xe614;" 
d="M364 242h296l46 -92h-388zM258 94l-138 65v-101v0q0 -5 1.5 -9.5t4.5 -7.5t7.5 -4.5t9.5 -1.5v-1h92v1q10 0 16.5 6.5t6.5 15.5v37zM905 159l-139 -65v-36v0q0 -10 7 -16.5t16 -6.5l1 -1h91l1 1q9 0 15.5 6.5t6.5 15.5h1v102zM922 518q0 6 -4 14.5t-12 16t-17 7.5h-49
v-41h-33l-58 157q-1 5 -4 9.5t-8 7t-11 2.5l-1 -1h-1q-10 2 -25.5 5t-45.5 7.5t-66.5 7.5t-70.5 3q-29 0 -61.5 -2.5t-56 -5t-47.5 -6.5t-33.5 -6t-15.5 -3l-4 1q-18 0 -23 -18v-1l-58 -157h-33v41h-49q-13 0 -23 -14t-10 -24l1 -1l-1 -1v-1q0 -9 6.5 -16t15.5 -7v-1h85
l-6 -16q-20 -9 -35 -19.5t-24 -23.5t-14 -23.5t-7 -29t-2.5 -30t-0.5 -36.5v-93v-1q0 -19 13.5 -32.5t32.5 -13.5h129l46 92h342l46 -92h129q13 0 23.5 6t17 17t6.5 23v1l-1 1h1v90q0 22 -0.5 32.5t-2 27.5t-4.5 26t-9 21.5t-15 21t-22 18t-31 17.5l-6 16h85v1q4 0 8 2t7 5
t5 7.5t2 8.5v1l-1 1zM267 311q-28 0 -48.5 20.5t-20.5 49.5t20.5 49t49 20t49 -20t20.5 -49q0 -10 -2.5 -19t-7 -16.5t-11 -14t-14 -11t-16.5 -7t-19 -2.5zM258 496v0l56 171h202h195l56 -171h-1q-41 13 -256.5 12t-251.5 -12zM826 381q0 -29 -20 -49.5t-49 -20.5
t-49.5 20.5t-20.5 49.5q0 14 5.5 27t15 22t22.5 14.5t27 5.5q29 0 49 -20t20 -49z" />
    <glyph glyph-name="uniE615" unicode="&#xe615;" 
d="M178 199l-76 369h80l27 -156q15 -85 19 -130h2q17 67 38 129l52 157h77l-134 -369h-85zM459 568l-27 -369h-72l18 252l61 117h20zM734 295l-29 -96h-75l124 369h95l73 -369h-78l-18 96h-92zM819 357l-14 78q-1 9 -3 21.5t-4 27.5t-3 21h-2q-5 -20 -10 -38t-9 -32l-25 -78
h70zM464 286q36 -23 79 -23q24 0 38 11t16 29q0 9 -2.5 15.5t-8.5 12.5t-15.5 12t-23.5 12q-86 35 -81 109q3 31 19 56t45 39.5t65 14.5q14 0 26 -1.5t21.5 -4t17.5 -6t16 -7.5l-21 -66q-4 2 -8.5 4.5t-10.5 4.5l-14 4q-6 2 -15 3t-17 1q-10 0 -17.5 -2t-13 -5t-10 -7.5
t-6.5 -9.5t-2 -11q-2 -17 10 -27t45 -26q41 -18 59 -44t16 -65q-4 -49 -39.5 -82t-97.5 -33q-57 0 -89 21z" />
    <glyph glyph-name="uniE616" unicode="&#xe616;" 
d="M552 721h-2h-2v24q0 7 -3.5 13t-9.5 9.5t-13 3.5q-10 0 -17.5 -7.5t-7.5 -18.5v-24q-57 -3 -108.5 -22.5t-89 -47.5t-70 -61t-53.5 -65t-35.5 -58.5t-21.5 -43.5l-6 -16q3 5 9.5 12t27 18.5t41.5 11.5q14 0 28.5 -5t24.5 -13.5t15 -13.5l9 -9q12 8 31.5 17t70 22
t101.5 13q55 0 106 -13.5t75 -26.5l24 -13h3q0 197 -99 292q-14 13 -28 22zM560 720q8 -3 16 -7.5t20 -12t23.5 -16.5t25 -22t25.5 -28t24.5 -35.5t23 -43.5t20 -52t15.5 -61q27 7 55 7q68 0 123 -38q-5 12 -11.5 26.5t-24 44.5t-37 57.5t-51 59.5t-66.5 56t-82.5 42
t-98.5 23zM497 421v-321q0 -14 -7 -26t-18.5 -18.5t-25.5 -6.5q-22 0 -37 15t-15 36v25q0 11 -7.5 18.5t-18 7.5t-18 -7.5t-7.5 -18.5v-25q0 -43 30 -73t73 -30q27 0 51 14t37.5 37.5t13.5 51.5v288z" />
    <glyph glyph-name="uniE617" unicode="&#xe617;" 
d="M240 535h517v-23v-436q0 -34 -14.5 -48.5t-48.5 -14.5h-397q-30 0 -44.5 14t-14.5 43v447q0 4 1 11zM376 109v335h-44v-335h44zM471 109v335h-45v-335h45zM566 109v335h-45v-335h45zM660 109v334h-45v-334h45zM189 589q0 6 0.5 17t1 19t1.5 16q2 11 7.5 19t14 12.5
t20.5 5.5q8 1 79 2h26v11v10v9v9q0 12 3.5 22t10 17.5t16 11.5t21.5 4q114 2 226 1q24 -1 37 -15t14 -39v-41h19h22h17q33 2 52 -8.5t24 -30.5t0 -52h-612zM386 679h222q11 0 13.5 4t1.5 13t-1 12q4 21 -17 21h-162h-57v-50z" />
    <glyph glyph-name="uniE618" unicode="&#xe618;" 
d="M512 693q-114 0 -218.5 -77t-191.5 -223q57 -96 123 -162.5t138.5 -101t148.5 -34.5q38 0 75.5 9t73.5 26t70.5 42t67.5 58t63.5 74t59.5 89q-87 146 -191.5 223t-218.5 77zM512 140q-105 0 -179.5 74.5t-74.5 180t74.5 180t179.5 74.5q69 0 127.5 -34t92.5 -93t34 -128
q0 -41 -12.5 -80t-36 -70t-55 -54.5t-70.5 -36.5t-80 -13zM512 533q57 0 98 -40.5t41 -98.5q0 -37 -18.5 -69t-50.5 -50.5t-70 -18.5t-70 18.5t-50.5 50.5t-18.5 69q0 58 41 98.5t98 40.5z" />
    <glyph glyph-name="uniE619" unicode="&#xe619;" 
d="M565.5 781q36.5 -10 55.5 -42.5t9 -69t-42.5 -55.5t-69 -9t-55.5 42.5t-9.5 69t42.5 55.5t69.5 9zM237 501q-4 7 -6 15t-2 17q0 28 20 48t49 20l42 -5l67 86l-109 -4l-61 90l-30 -104l-105 -31l90 -61l-3 -108zM295 323l-38 14l-31 -25l1 40l-33 23l38 11l11 38l23 -33
l40 1l-25 -31zM859 289l-49 34l-55 -23l17 57l-39 45l60 1l31 51l19 -56l58 -14l-47 -36zM882 617q-5 18 -21.5 27.5t-34.5 4.5q-8 -2 -15 -7q-3 -1 -8.5 -4t-24 -11.5t-39 -16t-53 -16.5t-65.5 -16t-76 -12t-86 -6q-22 0 -45.5 1.5t-40.5 4.5t-31.5 5.5t-21.5 4.5l-7 2
q-8 3 -15 3q-13 0 -23.5 -6t-16.5 -16.5t-6 -23.5q0 -19 13.5 -32t32.5 -13q8 -1 18.5 -1.5t42.5 -2t64.5 -2t68.5 1.5l-54 -201l172 -47l-58 -219q-5 -18 4.5 -34.5t27.5 -21.5t34.5 4.5t21.5 27.5q68 264 69 264q4 18 -5 34.5t-28 21.5l-126 34l40 147q145 20 264 67
q11 4 18.5 12.5t9.5 19t0 22.5zM427 246l-5 -22l-208 56q-2 1 -4.5 2t-5.5 2q-9 3 -18 1.5t-16.5 -6t-13 -11.5t-8.5 -16q-1 -5 -1 -10.5t1 -10.5t3 -9.5t5 -8.5t6.5 -7.5t8 -6t10.5 -3.5q15 -4 264 -71q11 -3 22.5 0.5t19.5 12t11 20.5l25 88h-96z" />
    <glyph glyph-name="uniE61A" unicode="&#xe61a;" 
d="M856 108q-14 14 -196 170l-100 -27q80 -93 135 -157t63 -72v-1q2 -1 3 -2.5t3 -2.5q19 -20 46 -20t46 19.5t19 46.5t-19 46zM881 745q0 3 -0.5 5.5t-2 5.5t-3.5 5q-7 6 -16 6t-15 -6q-59 -60 -345 -345q-18 15 -44 37q19 30 15.5 67t-28.5 64l-157 158q-3 3 -7.5 4.5
t-8.5 1.5t-8 -1.5t-7 -4.5q-6 -6 -6 -15t6 -16l16 -15l30 -30l34 -34l13 -14q4 -5 5.5 -10.5t0 -11t-5.5 -9.5q-6 -6 -15 -6t-16 6l-93 93v0q-7 6 -16 6t-15 -6q-4 -4 -5.5 -9.5t0 -11.5t5.5 -10v0l93 -93q6 -7 6 -16t-6 -15q-4 -4 -9.5 -5.5t-11.5 0t-10 5.5l-46 47l-47 46
q-7 6 -16 6t-15.5 -6.5t-6.5 -15.5t7 -15q104 -105 158 -158q25 -24 63 -27.5t68 15.5q4 -4 8.5 -9.5t8.5 -10.5t9.5 -11.5t10.5 -12.5q-250 -249 -266 -266q-1 -2 -2 -3q-17 -20 -16 -45.5t19.5 -43.5t44 -19t44.5 15v1q19 14 279 321q13 -9 28 -13t29.5 -3t29 7.5
t25.5 18.5l2 2q70 72 139 202t69 197v1z" />
    <glyph glyph-name="uniE61B" unicode="&#xe61b;" 
d="M173 569l55 -35v-464l-105 -50zM851 569h-137q0 83 -58.5 141t-141 58t-141 -58t-58.5 -141h-62l49 -549h599zM514.5 719q61.5 0 105.5 -44t44 -106h-299q0 62 44 106t105.5 44zM710 295q-1 -2 -2 -3l-116 -128l-146 135q-17 21 -20 47q-1 13 2 25.5t9.5 23t16 18
t21.5 11.5t25 4q42 0 70 -34q10 16 26.5 25t36.5 9q34 0 60.5 -24t29.5 -58q3 -29 -13 -51z" />
    <glyph glyph-name="uniE61C" unicode="&#xe61c;" 
d="M512 817q-67 0 -129.5 -20.5t-113 -58.5t-88.5 -88.5t-58.5 -113t-20.5 -129.5q0 -159 107 -277q105 -114 258 -131q23 -2 45 -2q111 0 205.5 55t149.5 149.5t55 205.5q0 159 -107 277q-105 114 -258 131q-23 2 -45 2zM510 66q-70 0 -134 27t-110 73.5t-73.5 110.5
t-27.5 134q0 56 17.5 108.5t49.5 95t74.5 74.5t95 49.5t108.5 17.5q94 0 173.5 -46t125.5 -125.5t46 -173.5t-46 -173.5t-125.5 -125.5t-173.5 -46zM752 544q0 15 -10 25t-24 10q-8 0 -15 -3.5t-12 -9.5l-249 -249l-113 112q-10 12 -25 12q-14 0 -24 -10t-10 -25t11 -25
l136 -137q15 -10 25 -10q6 0 12 2.5t10 6.5l278 277q3 3 5.5 7t3.5 8.5t1 8.5z" />
    <glyph glyph-name="uniE61D" unicode="&#xe61d;" 
d="M515 805q-170 0 -290.5 -120.5t-120.5 -290.5q0 -111 55 -205.5t149.5 -149.5t206 -55t206 55t149.5 149.5t55 205.5q0 48 -10.5 94t-31 86.5t-48.5 76t-63.5 64t-76 48.5t-86.5 31t-94 11zM513 53q-70 0 -134 27.5t-110 73.5t-73.5 110t-27.5 134q0 94 46 173.5
t125.5 125.5t173.5 46t173.5 -46t125.5 -125.5t46 -173.5q0 -70 -27.5 -134t-73.5 -110t-110 -73.5t-134 -27.5zM513.5 255q9.5 0 17.5 -4.5t12.5 -12.5t4.5 -17t-4.5 -17t-12.5 -12.5t-17 -4.5q-7 0 -13.5 2.5t-11 7.5t-7.5 11t-3 13q0 9 5 17t12.5 12.5t17 4.5zM548 593
q0 15 -10 26q-10 10 -24.5 10t-24.5 -10q-10 -11 -9 -26h-1v-227q0 -15 10 -25t24.5 -10t24.5 10t10 25v227z" />
    <glyph glyph-name="uniE61E" unicode="&#xe61e;" 
d="M496 796q-111 0 -205.5 -55t-149.5 -149.5t-55 -206t55 -206t149.5 -149.5t206 -55t206 55t149.5 149.5t55 205.5q0 48 -11 94.5t-31 86.5t-48.5 76t-64 64t-76 48t-86.5 31t-94 11zM495 44q-94 0 -173.5 46.5t-125.5 126t-46 173t46 173t125.5 125.5t173 46t173 -46
t126 -125.5t46.5 -173.5q0 -47 -12.5 -91.5t-35 -82.5t-54 -70t-69.5 -54t-82.5 -34.5t-91.5 -12.5zM531 385l164 165q8 7 8 18t-7.5 18.5t-18.5 7.5t-18 -8l-165 -164l-165 164q-5 5 -11.5 7t-13 0t-11.5 -7q-4 -3 -6 -8t-2 -10t2 -9.5t6 -8.5l164 -165l-164 -165
q-5 -5 -7 -11.5t0 -13t7 -11.5q7 -8 18 -8t18 8l165 165l165 -165q7 -8 18 -8t18.5 7.5t7.5 18.5t-8 18z" />
    <glyph glyph-name="uniE61F" unicode="&#xe61f;" 
d="M496 796q-67 0 -129.5 -21t-113 -59t-88.5 -88t-58.5 -113t-20.5 -130q0 -111 55 -205.5t149.5 -149.5t206 -55t206 55t149.5 149.5t55 206t-55 206t-149.5 149.5t-206.5 55zM495 44q-94 0 -173.5 46.5t-125.5 126t-46 172.5q0 47 12 92t34.5 82.5t54.5 69.5t69.5 54.5
t82.5 34.5t92 12q56 0 108.5 -17t95 -49t74.5 -74.5t49.5 -95.5t17.5 -109q0 -70 -27.5 -134t-73.5 -110t-110 -73.5t-134 -27.5zM447 422q6 3 10.5 4.5t8.5 1.5q8 0 8 -8q0 -7 -3 -17q-63 -203 -63 -256q0 -16 9 -25q4 -5 10 -7t13 -2q11 0 33.5 4t33.5 11q27 15 84 69
l-16 16q-56 -52 -69 -52q-3 0 -6 4t-3 10q0 30 44 179q27 90 27 102q0 10 -7 16q-13 11 -24 11q-36 0 -65 -16q-19 -11 -45 -31.5t-46 -42.5l19 -14q37 36 47 43zM554.5 653q25.5 0 43.5 -18t18 -44q0 -8 -2.5 -16t-6.5 -14.5t-9.5 -12.5t-12.5 -10t-14.5 -6t-16 -2t-16.5 2
t-15 6t-12.5 10t-9.5 12.5t-6 14.5t-2 16q0 26 18 44t43.5 18z" />
    <glyph glyph-name="uniE620" unicode="&#xe620;" 
d="M860 758h-717q-21 0 -36 -15t-15 -36v-512q0 -22 15 -37t36 -15h154v-153l205 153h358q14 0 26 7t18.5 19t6.5 26v512q0 21 -15 36t-36 15zM860 195h-382l-130 -98v98h-205v512h717v-512zM502 507q21 0 36 -15t15 -36.5t-15 -36.5t-36 -15t-36 15t-15 37q0 32 29 46
q11 5 22 5zM297 507q10 0 19.5 -4t16.5 -11t11 -16.5t4 -19.5q0 -22 -15 -37t-36 -15t-36 15t-15 37q0 10 4 19.5t11 16.5t16.5 11t19.5 4zM706.5 507q21.5 0 36.5 -15t15 -36q0 -14 -7 -26t-19 -19t-25.5 -7t-25.5 7t-19 19t-7 26q0 21 15 36t36.5 15z" />
    <glyph glyph-name="uniE621" unicode="&#xe621;" 
d="M881 758h-717q-21 0 -36 -15t-15 -36v-512q0 -22 15 -37t36 -15h153v-153l205 153h359q21 0 36 15t15 37v512q0 13 -7 25t-18.5 19t-25.5 7zM881 195h-383l-129 -98v98h-205v512h717v-512zM292 553h461q7 0 12.5 -3.5t9 -9.5t3.5 -13q0 -10 -7.5 -17.5t-17.5 -7.5h-461
q-11 0 -18.5 7.5t-7.5 17.5q0 7 3.5 13t9.5 9.5t13 3.5zM292 399h307q11 0 18.5 -7.5t7.5 -18t-7.5 -18t-18.5 -7.5h-307q-4 0 -8 1.5t-7 3.5t-5.5 5.5t-4 7.5t-1.5 8q0 7 3.5 13t9.5 9t13 3z" />
    <glyph glyph-name="uniE622" unicode="&#xe622;" 
d="M687 725q-56 0 -104 -25.5t-80 -68.5q-20 28 -48.5 49t-63 33t-71.5 12q-94 0 -160 -66.5t-66 -159.5q0 -97 69 -163v-1q148 -147 340 -340l342 342q68 66 68 161q0 46 -18 88t-48.5 72.5t-72 48.5t-87.5 18zM810 374q-29 -28 -105.5 -104t-138.5 -138l-63 -61
q-238 235 -306 304h-1l-1 1v0q-24 25 -37 56.5t-13 65.5q0 73 51 124t124 51q34 0 65.5 -13.5t55.5 -37t38 -53.5q2 -8 9 -13.5t15 -5.5q20 0 25 19q21 46 64 75t95 29q23 0 46 -6t42 -17.5t35 -27.5t27.5 -35t17.5 -42t6 -47q0 -35 -13.5 -67t-37.5 -57z" />
    <glyph glyph-name="uniE623" unicode="&#xe623;" 
d="M946 492l-304 38l-130 277l-130 -277l-304 -38l223 -210l-57 -301l268 148l268 -148l-57 301zM512 194l-193 -107l41 217l-161 151l219 27l94 200l94 -200l219 -27l-161 -151l41 -217z" />
    <glyph glyph-name="uniE624" unicode="&#xe624;" 
d="M840 641h-333l-51 52h-230v51q0 10 -4 19.5t-11 16.5t-16.5 11t-20.5 4q-13 0 -25 -7t-19 -18.5t-7 -25.5v-768h103v256h230l51 -51h394zM533 232l-51 51h-256v358h204l52 -51h307l51 -358h-307z" />
    <glyph glyph-name="uniE625" unicode="&#xe625;" 
d="M879 543h-230v153q0 38 -13.5 61t-35.5 32.5t-54 9.5l-153 -256h-77v25h-205v-537h205v51h486q21 0 36 15t15 36l26 231l51 51v77q0 21 -15 36t-36 15zM879 440l-51 -51l-26 -256h-486v359h105l151 256h25v-256h282v-52z" />
    <glyph glyph-name="uniE626" unicode="&#xe626;" 
d="M598 714q-14 11 -23 11q-11 0 -19 -8t-8 -19v-143q-27 -3 -54.5 -9t-67 -20t-76 -32.5t-77 -49t-74 -68t-64.5 -92t-50 -118.5q219 93 463 89l1 -147q2 -9 9.5 -15t16.5 -6q3 0 6 1l6 2q3 1 5.5 2.5t3.5 2.5l2 1l360 309zM159 242q3 5 8.5 14t26 36t43.5 51.5t61.5 55
t80.5 52.5t100.5 38t120.5 18v147l294 -249l-294 -246v148q-50 0 -97 -2.5t-84.5 -6.5t-71 -9t-59.5 -10t-47.5 -10.5t-36.5 -10.5t-25 -8.5t-15 -5.5z" />
    <glyph glyph-name="uniE627" unicode="&#xe627;" 
d="M871 742h-716q-7 0 -14 -1.5t-12.5 -5t-10 -8t-8 -10.5t-5.5 -12.5t-2 -13.5v-512q0 -14 7 -25.5t19 -18.5t26 -7h153v-154l205 154h358q22 0 37 15t15 36v512q0 5 -1 10.5t-3 10t-5 8.5t-6.5 7.5t-7.5 6t-8.5 4.5t-9.5 3t-11 1zM308 389q-21 0 -36 15t-15 36.5t15 36.5
t36 15t36 -15t15 -36.5t-15 -36.5t-36 -15zM513 389q-14 0 -25.5 7t-18.5 18.5t-7 25.5q0 22 15 37t36 15q14 0 26 -7t18.5 -19t6.5 -26q0 -21 -15 -36t-36 -15zM718 389q-21 0 -36 15t-15 36.5t15 36.5t36 15q14 0 25.5 -7t18.5 -19t7 -26t-7 -25.5t-18.5 -18.5t-25.5 -7z
" />
    <glyph glyph-name="uniE628" unicode="&#xe628;" 
d="M871 758h-717q-21 0 -36 -15t-15 -36v-512q0 -14 6.5 -26t18.5 -19t26 -7h153v-153l205 153h359q21 0 36 15t15 37v512q0 13 -7 25t-19 19t-25 7zM589 348h-307q-11 0 -18.5 7.5t-7.5 18t7.5 18t18.5 7.5h307q11 0 18.5 -7.5t7.5 -18t-7.5 -18t-18.5 -7.5zM743 502h-461
q-11 0 -18.5 7.5t-7.5 18t7.5 18t18.5 7.5h461q6 0 12 -3.5t9.5 -9.5t3.5 -13q0 -10 -7.5 -17.5t-17.5 -7.5z" />
    <glyph glyph-name="uniE629" unicode="&#xe629;" 
d="M696 739q-56 0 -104.5 -25.5t-79.5 -68.5q-21 28 -49 49t-62.5 33t-72.5 12q-61 0 -113 -30.5t-82.5 -82.5t-30.5 -113q0 -36 12.5 -75t28.5 -56q369 -372 369 -373l12 11l30 31l46 45q22 23 53 54.5t58 58.5l55 55q29 29 50 50.5t36.5 36.5t19.5 20q20 20 35 61t15 81
q0 46 -18 87.5t-48.5 72t-72 48.5t-87.5 18z" />
    <glyph glyph-name="uniE62A" unicode="&#xe62a;" 
d="M946 502l-304 38l-130 277l-130 -277l-304 -38l223 -210l-57 -300l268 147l268 -147l-57 300z" />
    <glyph glyph-name="uniE62B" unicode="&#xe62b;" 
d="M236 742q0 11 -4.5 20.5t-11 16t-16 11t-20.5 4.5q-14 0 -25.5 -7t-18.5 -19t-7 -26v-768h103v717v51zM850 640h-333l-51 51h-179v-461h179l51 -51h394z" />
    <glyph glyph-name="uniE62C" unicode="&#xe62c;" 
d="M881 543h-231v153q0 29 -7 49t-21 31.5t-32 17t-42 5.5l-154 -256h-25v-461h435q14 0 25.5 7t18.5 18.5t7 25.5l26 231l51 51v77q0 13 -7 25t-18.5 19t-25.5 7zM113 568h204v-537h-204v537z" />
    <glyph glyph-name="uniE62D" unicode="&#xe62d;" 
d="M599 712q-13 12 -22 12q-12 0 -20 -8t-8 -20l1 -142q-28 -4 -55.5 -10t-67 -19.5t-76 -32t-77 -49t-74 -68.5t-64 -92t-50.5 -118q219 93 464 89v-148l2 -6l4 -4q1 -3 3.5 -5t5 -3t5.5 -2t7 -1q2 0 5 1t6 2.5t5.5 3t4.5 2.5h1l360 309z" />
    <glyph glyph-name="uniE62E" unicode="&#xe62e;" 
d="M946 502l-303 38l-131 277l-130 -277l-304 -38l224 -210l-58 -300v0l268 147l269 -147l-58 300zM516 202v483l90 -192l219 -28l-161 -151l42 -216z" />
    <glyph glyph-name="uniE62F" unicode="&#xe62f;" 
d="M147 666h730q10 0 17 -7.5t7 -17.5v-48q0 -7 -3 -12.5t-9 -9t-12 -3.5h-730q-6 0 -12 3.5t-9 9t-3 12.5v48q0 7 3 12.5t9 9t12 3.5zM147 422h730q10 0 17 -7t7 -17v-49q0 -10 -7 -17t-17 -7h-730q-10 0 -17 7t-7 17v49q0 10 7 17t17 7zM147 179h730q10 0 17 -7t7 -17v-49
q0 -10 -7 -17t-17 -7h-730q-10 0 -17 7t-7 17v49q0 10 7 17t17 7z" />
    <glyph glyph-name="uniE630" unicode="&#xe630;" 
d="M869 681h-717q-21 0 -36 -15t-15 -36v-512q0 -14 7 -26t19 -18.5t25 -6.5h717q21 0 36 15t15 36v512q0 14 -6.5 25.5t-18.5 18.5t-26 7zM859 620v-5l-348 -244l-348 244v5h696zM163 128v424l332 -232q7 -5 16 -5t16 5l332 232v-424h-696z" />
    <glyph glyph-name="uniE631" unicode="&#xe631;" 
d="M867 757h-720q-14 0 -25 -7t-17.5 -18t-6.5 -25q0 -10 3.5 -19t10.5 -16q2 -4 318 -372v-259l154 -51v309q318 372 320 376q12 14 12 32q0 13 -6.5 24.5t-17.5 18.5t-25 7zM481 328l-322 379h629z" />
    <glyph glyph-name="uniE632" unicode="&#xe632;" 
d="M338 159h533q12 0 21 -9t9 -22t-9 -22t-21 -9h-533q-13 0 -22 9t-9 22t9 22t22 9zM164 189q17 0 31 -8t22 -22t8 -31q0 -12 -4.5 -23.5t-13 -20t-20 -13t-23.5 -4.5q-17 0 -31 8t-22 22t-8 31t8 31t22 22t31 8zM338 415h533q12 0 21 -9t9 -22t-9 -22t-21 -9h-533
q-13 0 -22 9t-9 22t9 22t22 9zM164 445q25 0 43 -18t18 -43t-18 -43t-43 -18q-13 0 -24 4.5t-19.5 13t-13 20t-4.5 23.5q0 25 18 43t43 18zM338 671h533q12 0 21 -9t9 -22t-9 -22t-21 -9h-533q-13 0 -22 9t-9 22t9 22t22 9zM164 701q25 0 43 -18t18 -43q0 -12 -4.5 -23.5
t-13 -20t-20 -13t-23.5 -4.5q-25 0 -43 18t-18 43t18 43t43 18z" />
    <glyph glyph-name="uniE633" unicode="&#xe633;" 
d="M742.5 779q-83.5 0 -142 -59t-58.5 -142q0 -39 13 -70t35.5 -57t47 -53t54 -72t51.5 -100q21 54 50.5 98t54.5 70t47.5 51.5t35.5 57.5t13 75q0 83 -59 142t-142.5 59zM744 486q-39 0 -66 27.5t-27 66.5q0 19 7 36t19.5 30t30 20t36.5 7q13 0 25 -3t22.5 -9t19 -15
t14.5 -19t9.5 -22.5t3.5 -24.5q0 -26 -12.5 -47.5t-34 -34t-47.5 -12.5zM325 143h533q13 0 22 -9t9 -21.5t-9 -21.5t-22 -9h-533q-12 0 -21 9t-9 21.5t9 21.5t21 9zM151 174q26 0 44 -18t18 -44q0 -16 -8.5 -30.5t-22.5 -22.5t-31 -8q-25 0 -43 18t-18 43q0 17 8 31
t22.5 22.5t30.5 8.5zM325 399h187q4 0 8 -1t7.5 -3t6.5 -5t5 -6t3 -7t1 -9q0 -8 -4 -15t-11 -11t-16 -4h-187q-12 0 -21 9t-9 21.5t9 21.5t21 9zM151 430q10 0 19.5 -3t17 -9t13.5 -13.5t9 -17t3 -19.5q0 -25 -18 -43t-44 -18q-16 0 -30.5 8t-22.5 22.5t-8 31t8 30.5
t22.5 22.5t30.5 8.5zM325 655h110q13 0 22 -9t9 -21.5t-9 -21.5t-22 -9h-110q-12 0 -21 9t-9 21.5t9 21.5t21 9zM151 686q17 0 31 -8.5t22.5 -22.5t8.5 -31q0 -12 -5 -23.5t-13 -19.5t-19.5 -13t-24.5 -5q-25 0 -43 18t-18 43q0 13 5 24.5t13 19.5t19.5 13t23.5 5z" />
    <glyph glyph-name="uniE634" unicode="&#xe634;" 
d="M344 465h36v-51v-51h-36v102zM344 312h36v-52v-51h-36v103zM615 307h36v25l-36 51v-44v-32zM756 794q-83 0 -142 -59t-59 -142q0 -39 13 -70t35.5 -57t47.5 -53t54.5 -72t50.5 -100q18 46 42 85t45.5 62t42.5 47t36.5 44t25 49t9.5 65q0 83 -59 142t-142 59zM757.5 501
q-38.5 0 -66 27.5t-27.5 66.5q0 25 12.5 46.5t34 34t47 12.5t47 -12.5t34 -34t12.5 -46.5q0 -39 -27.5 -66.5t-66 -27.5zM907 302q0 10 -7.5 17.5t-18 7.5t-18 -7.5t-7.5 -17.5v-2v-229l-205 101v83h-36v-81l-235 -96v80h-36v-80l-205 80v538l205 -102v-78h36v77l119 49
q4 1 8 3t7 5.5t4.5 7.5t1.5 9q0 7 -3.5 13t-9.5 9.5t-13 3.5q-2 0 -5 -1t-5 -2t-5 -2l-117 -48q-163 78 -194 94q-7 4 -14 6t-15 2q-14 0 -26 -6.5t-19 -18.5t-7 -26q0 -2 1 -5v-1v-558q246 -102 274 -102t271 102q177 -84 192 -92q7 -5 14.5 -7.5t16.5 -2.5q14 0 25.5 7
t18.5 18.5t7 25.5v225v1z" />
    <glyph glyph-name="uniE635" unicode="&#xe635;" 
d="M910 94q-8 12 -197 174q65 89 65 199q0 39 -9 77t-25.5 71.5t-39.5 63t-52.5 52.5t-62.5 39.5t-71 25.5t-78 9q-46 0 -89.5 -12t-81 -34t-68.5 -53t-52.5 -68t-34 -81t-12.5 -90t12.5 -90t34 -81t52.5 -68t68.5 -53t81 -34t89.5 -12q110 0 199 65q18 -21 65 -77
t71.5 -83.5t36.5 -36.5q21 -14 46 -11.5t43 20.5q18 17 20 42.5t-11 45.5zM435 190q-117 0 -199.5 82.5t-82.5 199.5t82.5 199.5t199.5 82.5t199.5 -82.5t82.5 -199.5t-82.5 -199.5t-199.5 -82.5z" />
    <glyph glyph-name="uniE636" unicode="&#xe636;" 
d="M512 488q43 0 73.5 -30.5t30.5 -73.5t-30.5 -73.5t-73.5 -30.5t-73.5 30.5t-30.5 73.5q0 21 8 40.5t22 33.5t33.5 22t40.5 8zM512 794q-111 0 -205.5 -55t-149.5 -149.5t-55 -205.5t55 -205.5t149.5 -149.5t205.5 -55t205.5 55t149.5 149.5t55 205.5q0 83 -32.5 159
t-87.5 131t-131 87.5t-159 32.5zM537 44v74q0 4 -1 8t-3.5 7t-5.5 5.5t-7 3.5t-8 1q-11 0 -18.5 -7.5t-7.5 -17.5v-74q-127 8 -218 98t-101 216h76q7 0 13 3.5t9.5 9.5t3.5 13t-3.5 13t-9.5 9t-13 3h-77q8 130 99.5 222t220.5 101v-82q0 -11 7.5 -18.5t18.5 -7.5q4 0 8 1.5
t7 4t5.5 5.5t3.5 7t1 8v82q129 -10 219.5 -102t98.5 -221h-80q-10 0 -17.5 -7.5t-7.5 -18t7.5 -18t17.5 -7.5h79q-11 -126 -101 -215t-216 -99z" />
    <glyph glyph-name="uniE637" unicode="&#xe637;" 
d="M297 673v102q0 11 7.5 18.5t18 7.5t18 -7.5t7.5 -18.5v-102q0 -11 -7.5 -18.5t-17.5 -7.5q-5 0 -8.5 1.5t-7 3.5t-5.5 5.5t-3.5 7t-1.5 8.5zM655 673v102q0 7 3.5 13t9.5 9.5t13 3.5q11 0 18.5 -7.5t7.5 -18.5v-102q0 -11 -7.5 -18.5t-18.5 -7.5q-7 0 -13 3.5t-9.5 9.5
t-3.5 13zM809 724h-77v-51q0 -22 -15 -37t-36 -15t-36 15t-15 37v51h-256v-51q0 -22 -15 -37t-36.5 -15t-36.5 15t-15 37v51h-76q-14 0 -26 -7t-19 -18.5t-7 -25.5v-615q0 -21 15 -36t37 -15h614q21 0 36 15t15 36v615q0 21 -15 36t-36 15zM379 58h-184v144h184v-144z
M379 227h-184v144h184v-144zM379 396h-184v144h184v-144zM599 58h-195v144h195v-144zM599 227h-195v144h195v-144zM599 396h-195v144h195v-144zM809 58h-184v144h184v-144zM809 227h-184v144h184v-144zM809 396h-184v144h184v-144z" />
    <glyph glyph-name="uniE638" unicode="&#xe638;" 
d="M747 562v146h-98v-48l-108 107q-5 5 -11 9t-13 6t-15 2q-23 0 -39 -17l-401 -401h147v-342h587v342h146zM747 415v-343h-245v196h-147v-196h-97v343h-59l303 303l303 -303h-58z" />
    <glyph glyph-name="uniE639" unicode="&#xe639;" 
d="M775 426h-479l203 203q9 9 9 21.5t-9 21.5q-3 4 -7.5 6t-9 2.5t-9.5 0t-9.5 -2.5t-7.5 -6l-255 -255q-9 -9 -9 -22t9 -22v0l255 -255q9 -9 21.5 -9t21.5 9q5 5 7 10.5t2 11.5t-2 11.5t-7 10.5l-202 202h478q13 0 22 9t9 22t-9 22t-22 9z" />
    <glyph glyph-name="uniE63A" unicode="&#xe63a;" 
d="M796 281l-274 274q-6 7 -14.5 9t-17 0t-15.5 -9v0l-274 -274q-5 -4 -7 -10.5t-2 -12.5t2 -12.5t7 -10.5q10 -10 23.5 -10t23.5 10l251 250l251 -250q6 -7 14.5 -9t17 0t14.5 9q10 9 10 23t-10 23z" />
    <glyph glyph-name="uniE63B" unicode="&#xe63b;" 
d="M680 418l-275 275q-9 9 -23 9t-23.5 -9.5t-9.5 -23t10 -23.5l251 -251l-251 -251q-10 -10 -10 -23.5t9.5 -23t23.5 -9.5t23 10l275 274l2 2q1 1 2 3q3 5 4.5 10.5t1 11t-3 10.5t-6.5 9z" />
    <glyph glyph-name="uniE63C" unicode="&#xe63c;" 
d="M803.5 534.5q-9.5 9.5 -23 9.5t-23.5 -10l-251 -251l-251 251q-9 10 -23 10t-23 -10q-4 -4 -6.5 -8.5t-3 -9.5t0 -10t3 -10t6.5 -9l274 -274q9 -9 23 -9t23 9v0l275 275q9 9 9 23t-9.5 23.5z" />
    <glyph glyph-name="uniE63D" unicode="&#xe63d;" 
d="M636 123l-251 251l251 251q9 9 9 23t-9.5 23.5t-23 9.5t-23.5 -10l-274 -274q-6 -6 -8.5 -14.5t0 -17t8.5 -15.5h1l273 -274q10 -9 23.5 -9t23 9.5t9.5 23t-9 23.5z" />
    <glyph glyph-name="uniE63E" unicode="&#xe63e;" 
d="M516 507l205 -205h-409z" />
    <glyph glyph-name="uniE63F" unicode="&#xe63f;" 
d="M649 374l-204 -205v410z" />
    <glyph glyph-name="uniE640" unicode="&#xe640;" 
d="M516 282l-204 204h409z" />
    <glyph glyph-name="uniE641" unicode="&#xe641;" 
d="M383 374l205 205v-410z" />
    <glyph glyph-name="uniE642" unicode="&#xe642;" 
d="M788 404h-245v246q0 13 -9 22t-22 9t-22 -9t-9 -22v-246h-246q-12 0 -21 -9t-9 -21.5t9 -21.5t21 -9h246v-246q0 -12 9 -21t22 -9t22 9t9 21v246h245q13 0 22 9t9 21.5t-9 21.5t-22 9z" />
    <glyph glyph-name="uniE643" unicode="&#xe643;" 
d="M235 404h553q13 0 22 -9t9 -21.5t-9 -21.5t-22 -9h-553q-12 0 -21 9t-9 22q0 6 2 11.5t6.5 10t10 6.5t11.5 2z" />
    <glyph glyph-name="uniE644" unicode="&#xe644;" 
d="M809 123l-251 251l251 251q10 9 10 23t-9.5 23.5t-23.5 9.5t-23 -10l-251 -251l-251 251q-10 10 -23.5 10t-23.5 -10q-4 -5 -6.5 -11t-2.5 -12t2.5 -12.5t6.5 -10.5l251 -251l-251 -251q-4 -4 -6 -8.5t-3 -9.5t0 -10t3 -10t6 -9q10 -9 23.5 -9t23.5 9l251 251l251 -251
q6 -6 14.5 -8.5t17 0t15 9t8.5 15t0 17t-9 14.5z" />
    <glyph glyph-name="uniE645" unicode="&#xe645;" 
d="M138 399q7 0 13 -3t9 -9t3 -13t-3 -13t-9 -9.5t-13 -3.5t-13 3.5t-9.5 9.5t-3.5 13t3.5 13t9.5 9t13 3zM599 399h-399l169 169q7 8 7 18.5t-7 18.5q-4 3 -9 5t-9.5 2t-9.5 -2t-9 -5l-212 -213q-3 -3 -4.5 -6t-2.5 -6t-1 -6.5t1 -6.5t2.5 -6t4.5 -5v-1l212 -212
q2 -2 4.5 -3.5t4.5 -2.5t5 -1h4h6q2 0 4.5 1t4.5 2.5t4 3.5q3 3 4.5 6.5t2 7.5t0 8t-2 7.5t-4.5 6.5l-169 169h399q10 0 17.5 7.5t7.5 18.5q0 7 -3.5 13t-9 9t-12.5 3zM778 783h-512q-14 0 -25.5 -6.5t-18.5 -18.5t-7 -26v-102q0 -11 7.5 -18.5t18 -7.5t18 7.5t7.5 18.5v102
h512v-717h-512v103q0 10 -7.5 17.5t-18 7.5t-18 -7.5t-7.5 -17.5v-103q0 -21 15 -36t36 -15h512q14 0 26 7t18.5 18.5t6.5 25.5v717q0 11 -4 20.5t-11 16t-16.5 10.5t-19.5 4z" />
    <glyph glyph-name="uniE646" unicode="&#xe646;" 
d="M717 799h-410q-14 0 -25.5 -7t-18.5 -19t-7 -25v-717q0 -14 7 -26t18.5 -18.5t25.5 -6.5h410q14 0 25.5 6.5t18.5 18.5t7 26v717q0 10 -4 19.5t-11 16.5t-16.5 11t-19.5 4zM458 758h108q5 0 8.5 -4t3.5 -9t-3.5 -9t-8.5 -4h-108q-3 0 -6 2t-4.5 5t-1.5 6.5t1.5 6t4.5 4.5
t6 2zM512 21q-11 0 -20.5 5.5t-15 14.5t-5.5 21q0 17 12 29t29 12q11 0 20.5 -5.5t15 -15t5.5 -20.5q0 -28 -25 -38q-8 -3 -16 -3zM717 138h-410v553h410v-553z" />
    <glyph glyph-name="uniE647" unicode="&#xe647;" 
d="M417 97h191v-71l-71 -48h-48l-72 48v71zM799 503q0 78 -38.5 144t-104.5 104.5t-144 38.5t-144 -38.5t-104.5 -104.5t-38.5 -144q0 -60 24.5 -114.5t66.5 -94.5q21 -22 40.5 -44.5t40 -55t20.5 -49.5h191q0 21 28.5 61.5t56.5 71.5t28 29q78 83 78 196z" />
    <glyph glyph-name="uniE648" unicode="&#xe648;" 
d="M911 774l-819 -410l307 -51l103 -358z" />
    <glyph glyph-name="uniE649" unicode="&#xe649;" 
d="M102 692h256q48 0 88 -38.5t40 -63.5v-615q-6 6 -18 14.5t-47 23t-68 14.5h-251v665zM801 692l95 -614l-179 -51h205v665h-121zM538 590q0 19 15.5 50.5t36.5 52.5q44 45 152 102l52 -666l-256 -154v615z" />
    <glyph glyph-name="uniE64A" unicode="&#xe64a;" 
d="M795 718l-229 -22v99h-103v-109l-205 -19v-134h537l73 103zM822 462h-588l-78 -92l78 -93l588 26v159zM463 257l103 -51v-231h-103v282z" />
    <glyph glyph-name="uniE64B" unicode="&#xe64b;" 
d="M756 430l166 273l-321 -5l40 -68l-39 -23q-55 -31 -97.5 -62.5t-81 -74t-63.5 -91t-39.5 -112t-14.5 -138.5v-154h153v154q0 40 5 75t15 63.5t21 51.5t29.5 44.5t32.5 36t37.5 31t37.5 26t39 24.5l38 22zM306 795h153v-195l-153 -154v349z" />
    <glyph glyph-name="uniE64C" unicode="&#xe64c;" 
d="M131 147q37 29 190 143q12 0 60 -36t59 -36q35 12 87.5 55.5t96 96t55.5 86.5q0 12 -36 60t-36 60q64 90 143 190q23 0 57.5 -25.5t60 -60t25.5 -57.5q-17 -87 -83.5 -190.5t-154.5 -191t-191 -154t-190 -83.5q-36 0 -89.5 53.5t-53.5 89.5z" />
    <glyph glyph-name="uniE64D" unicode="&#xe64d;" 
d="M707 819l47 -47q0 -3 -0.5 -7.5t0 -17.5t4 -26t12 -29.5t21.5 -29.5q17 -17 44 -25.5t45 -9.5h19l47 -47q15 -15 15 -36t-15 -36l-69 -69l-311 311l69 69q10 9 23 12.5t26 0t23 -12.5zM526 710l-409 -409q-15 -15 -15 -36t15 -36l239 -239q15 -15 36 -15t36 15l409 409z
M468 276l-81 -44l18 90l-67 63l91 11l39 83l39 -83l91 -11l-67 -63l17 -90z" />
    <glyph glyph-name="uniE64E" unicode="&#xe64e;" 
d="M540 252l-208 -208l-167 167l210 209q-3 4 -4 4q-15 15 -36 15t-36 -15l-1 1l-181 -181q-15 -15 -15 -36.5t15 -36.5l181 -181q15 -15 36.5 -15t36.5 15l177 178q1 0 1 1q2 1 3 2q5 5 8.5 11t5 12.5t1.5 13t-1.5 12.5t-5 12t-8.5 11zM368 290l210 210q9 9 21.5 9t21.5 -9
t9 -21.5t-9 -21.5l-210 -210q-9 -9 -21.5 -9t-21.5 9t-9 21.5t9 21.5zM878 570l-181 181q-8 7 -17.5 11t-19 4t-19 -4t-17.5 -11l-181 -181l1 -1q-6 -6 -9.5 -13t-4.5 -15t0 -15.5t4.5 -15t9.5 -13.5q1 -1 3 -2l1 -1l210 209l166 -167l-208 -207q1 -3 2 -5l4 -4q1 -2 3 -4
q15 -15 36 -15t36 15l3 3q0 1 1 1l177 177q15 15 15 36.5t-15 36.5z" />
    <glyph glyph-name="uniE64F" unicode="&#xe64f;" 
d="M918 791q-4 5 -9.5 6.5t-11.5 0.5l-301 -3l-479 -479q-9 -10 -12.5 -23t0 -26t12.5 -23l254 -254q15 -15 36 -15t36 15l479 479l3 301v4v4q0 2 -0.5 3.5t-1.5 3.5t-2 3.5t-3 2.5zM838 654q-12 -12 -28.5 -12t-28.5 12t-12 28.5t12 28.5t28.5 12t28.5 -12q8 -8 11 -18.5
t0 -20.5t-11 -18z" />
    <glyph glyph-name="uniE650" unicode="&#xe650;" 
d="M502.5 795q-111.5 0 -206 -55t-149.5 -149.5t-55 -206t55 -206t149.5 -149.5t206 -55t206 55t149.5 149.5t55 206t-55 206t-149.5 149.5t-206 55zM501 43q-94 0 -173.5 46.5t-125.5 126t-46 173.5q0 35 7 69t20 65t32 58.5t42 51t51 42.5t58.5 32t65 20t69.5 7
q56 0 108.5 -17.5t95 -49.5t74.5 -74.5t49.5 -95t17.5 -108.5q0 -32 -5.5 -62.5t-16 -58.5t-25.5 -53.5t-34 -48t-41.5 -42t-48.5 -34t-53.5 -25t-58.5 -16.5t-62 -6zM677 415h-144v195q0 12 -9 21t-22 9q-8 0 -15 -4t-11 -11t-4 -15v-226q0 -12 9 -21t21 -9h44h88h43
q8 0 15 4t11 11t4 16q0 12 -9 21t-21 9z" />
    <glyph glyph-name="uniE651" unicode="&#xe651;" 
d="M500 741q-52 0 -101.5 -14t-91.5 -38.5t-77.5 -60t-60 -77.5t-38 -91.5t-13.5 -101.5q0 -104 51 -192t139 -139t192 -51q78 0 149 30t122 81.5t81.5 122t30.5 148.5q0 104 -51.5 192t-139.5 139.5t-192 51.5zM498.5 40q-87.5 0 -161.5 43t-117 117t-43 161.5t43 161.5
t117 117t162 43q52 0 101 -16t88.5 -46t69.5 -69.5t46 -88.5t16 -101q0 -88 -43 -162t-117 -117t-161.5 -43zM528 568q0 6 -2 11t-6 9t-9 6t-11 2q-3 0 -6.5 -0.5t-6.5 -2t-5.5 -3.5t-3.5 -4l-4 -6q-1 -2 -2 -5.5t-1 -6.5v-194l-126 -72q-10 -6 -13 -17.5t2.5 -22t17 -13.5
t22.5 3l140 81l4 3l4 4l3 5l1 2t1 3l1 2v3v3v210zM825.5 829q57.5 -15 87 -66.5t14.5 -108.5q-4 1 -71 19t-135 36t-71 19q16 57 67 86.5t108.5 14.5zM141 718q18 18 42.5 25t49 0t43.5 -25q-10 -9 -24 -23t-42.5 -43t-47.5 -48l-21 -21q-28 28 -28 67.5t28 67.5z" />
    <glyph glyph-name="uniE652" unicode="&#xe652;" 
d="M481 457h50v-166h-50v166zM564 457h50v-166h-50v166zM398 457h50v-166h-50v166zM506 847q-47 0 -92.5 -9.5t-86.5 -27t-78.5 -42.5t-68.5 -56t-56 -68.5t-42.5 -78t-27 -86.5t-9.5 -93q0 -94 36.5 -179t98.5 -147t147 -98.5t179 -36.5t179 36.5t147 98.5t98.5 147
t36.5 179q0 175 -116 305q-111 126 -276 151q-35 5 -69 5zM713 490v-16h-33l-20 -17h-13v-166h13l20 -20v-13h33v-33h-414v33h33v13l21 20h12v166h-13l-18 17h-35v16l183 100h2q-3 11 -3 19t3.5 15t9 11.5t12.5 4.5t12.5 -4.5t9 -11.5t3.5 -15q0 -4 -1 -9l-2 -10h2l183 -100
v0h1h-1z" />
    <glyph glyph-name="uniE653" unicode="&#xe653;" 
d="M517 847q-63 0 -122.5 -16.5t-110 -46.5t-93 -72.5t-72.5 -93t-46.5 -110t-16.5 -122.5q0 -94 36.5 -179t98.5 -147t147 -98.5t179 -36.5t179.5 36.5t147 98.5t98 147t36.5 179t-36.5 179.5t-98 147t-147 98t-179.5 36.5zM517 444q0 -13 -10.5 -22.5t-26.5 -10.5h-1h-11
v-36l16 -16v-130q0 -14 -6.5 -25.5t-18 -18t-25.5 -6.5q-20 0 -34.5 14.5t-14.5 35.5v129l3 4l2 4l4 2q1 2 3 3.5t4 1.5v37q-4 -1 -9 -1q-15 0 -26.5 10.5t-13.5 25.5v3v1v12l-1 116q1 4 3 8t6 6t8 2q17 0 17 -16v-1v-115h33v111l1 1l-1 1v3q0 4 2 8t6 6t8 2h1v1h1v-1
q4 0 7.5 -2.5t5.5 -6t2 -7.5v-2v-1v-1v-112h33v115v1q0 6 5 11t12 5q4 0 8 -2t6 -6t2 -8v-1v-115v-16l-1 -1h1zM683 415v-218q-1 -7 -6 -12.5t-13 -5.5h-2h-2h-1h-1h-2v0q-3 0 -5.5 1t-5 2.5t-4.5 3t-4 3.5t-3 4.5t-1 4.5v1v95h-29h-1q-8 0 -13.5 5.5t-5.5 13.5v1v182v4v4
q0 24 15 45t38 32.5t46 11.5v-178z" />
    <glyph glyph-name="uniE654" unicode="&#xe654;" 
d="M512 847q-75 0 -145.5 -23.5t-127 -66t-99 -99t-66 -127t-23.5 -145.5q0 -94 36.5 -179t98.5 -147t147 -98.5t179 -36.5t179 36.5t147 98.5t98.5 147t36.5 179q0 75 -23.5 145.5t-66 127t-99 99t-127 66t-145.5 23.5zM487 559q3 12 12 21t21.5 12t24.5 0q19 -5 29 -21.5
t4 -34.5q-2 -9 -8 -16.5t-13.5 -12t-17 -6t-19.5 1.5q-18 5 -28 21.5t-5 34.5zM359 533l16 52l31 -45l57 2l-35 -43l1 -3l-8 2q-3 1 -6.5 2t-7.5 1h-1v0q-15 0 -25.5 -10t-10.5 -24q0 -5 1.5 -8.5t3.5 -7.5l-25 -19l1 55l-46 31zM405 361l-20 7l-16 -13v21l-17 11l20 6l6 19
l12 -17l20 1l-12 -16zM510 277v1q-2 -9 -10 -14t-17 -3l-1 -1l-136 36l1 1h-1h-1q-9 2 -14 10.5t-2.5 17.5t11 14t18.5 2q2 0 5 -2l107 -28l3 11h50zM584 196q-3 -9 -11.5 -14t-18 -2.5t-14 10.5t-2.5 18l30 110l-16 4l-73 20l28 101q-20 -1 -36 -1q-45 1 -65 3
q-10 0 -17 6.5t-7 16t7 16.5t17 7q4 0 8 -2v1q4 -1 11 -2.5t26.5 -4.5t38.5 -2q30 0 60.5 4.5t51.5 10.5t37.5 12t24.5 10l9 4q3 3 7 4t7.5 0.5t7 -2t6.5 -3.5t5 -5t3 -7t0.5 -8t-2.5 -8t-5 -6.5t-7 -4.5q-61 -23 -138 -34l-20 -74l66 -17q9 -2 14 -10.5t2 -17.5v-1h1z
M697 344l-25 17l-28 -12l8 29l-20 23h31l16 26l10 -28l30 -7l-24 -18z" />
    <glyph glyph-name="uniE655" unicode="&#xe655;" 
d="M512 847q-75 0 -145.5 -23.5t-127 -66t-99 -99t-66 -127t-23.5 -145.5q0 -94 36.5 -179t98.5 -147t147 -98.5t179 -36.5t179 36.5t147 98.5t98.5 147t36.5 179q0 75 -23.5 145.5t-66 127t-99 99t-127 66t-145.5 23.5zM730 351v-1h-2h-2q-1 0 -2.5 0.5t-2.5 1.5l-179 27
v-77l47 -34l11 -36l-67 14q-9 -15 -21 -15q-4 0 -8 2t-7 5t-6 7l-68 -13l12 35h-1l48 36v76l-179 -27q-1 -1 -2.5 -1.5t-2.5 -0.5h-2h-2v1q-12 5 -12 24q0 10 4.5 17t11.5 7q3 -1 5 -2l179 71v100q0 12 9.5 27t20.5 15q8 0 15 -7.5t11 -17t4 -17.5v-100l179 -71q3 2 5 2
q7 0 11.5 -7t4.5 -17q0 -5 -0.5 -8.5t-2.5 -6.5t-4 -5.5t-5 -3.5z" />
    <glyph glyph-name="uniE656" unicode="&#xe656;" 
d="M512 847q-75 0 -145 -23.5t-127 -66t-99.5 -99t-65.5 -127t-23 -145.5q0 -94 36.5 -179t98 -147t147 -98.5t179 -36.5t179 36.5t147 98.5t98 147t36.5 179q0 175 -115 305q-111 126 -277 151q-34 5 -69 5zM426 594h77v-99l-77 -78v177zM654 409l-22 37q-18 -11 -19 -11
q-26 -16 -40 -27t-33 -32t-28 -50.5t-9 -68.5v-78h-77v78q0 62 20 109t51 76.5t79 56.5l19 11l-20 35l162 2z" />
    <glyph glyph-name="uniE657" unicode="&#xe657;" 
d="M494 521q-7 0 -14.5 -2.5t-13 -6.5t-10 -10t-7 -13t-2.5 -14q0 -19 14 -33t33 -14t32.5 14t13.5 33t-13.5 32.5t-32.5 13.5zM494 355q-9 0 -18 -3.5t-15.5 -10t-10 -15t-3.5 -17.5q0 -13 6.5 -23.5t17.5 -17t23 -6.5t23 6.5t17 17t6 23.5q0 19 -13.5 32.5t-32.5 13.5z
M511 847q-75 0 -145.5 -23.5t-127 -66t-99.5 -99t-66 -127t-23 -145.5q0 -94 36.5 -179t98 -147t147 -98.5t179 -36.5t179 36.5t147.5 98.5t98 147t36 179t-36 179.5t-98 147t-147.5 98t-178.5 36.5zM592 270q0 -37 -26.5 -64t-69.5 -27q-22 0 -41.5 7.5t-32 20t-20 29
t-7.5 34.5v238q0 37 27.5 61.5t74.5 24.5q17 -1 32 -5t26.5 -12t19.5 -18.5t12.5 -23.5t4.5 -27v-238zM689 319l-66 -68v103l54 1v-1q15 0 18 -15q2 -11 -6 -20zM689 485l-66 -68v103l54 1v-1q15 0 18 -15q2 -11 -6 -20z" />
    <glyph glyph-name="uniE658" unicode="&#xe658;" 
d="M506 220zM485 220.5q0 8.5 6 14.5t15 6q4 0 8 -1.5t6.5 -4.5t4.5 -6.5t2 -8t-2 -8.5t-4.5 -6.5t-6.5 -4t-8 -1.5q-9 0 -15 6t-6 14.5zM402 539h208v-280h-208v280zM479 560h54q3 0 4.5 2t1.5 4.5t-1.5 4.5t-4.5 2h-54q-3 0 -5 -2t-2 -4.5t2 -4.5t5 -2zM506 847
q-54 0 -105.5 -12t-97 -35t-85.5 -54.5t-71.5 -71.5t-54.5 -85t-35 -97t-12 -106q0 -75 23.5 -145.5t66 -127t99 -99t127 -66t145.5 -23.5q94 0 179 36.5t147 98.5t98.5 147t36.5 179q0 47 -9.5 93t-27 86.5t-42.5 78t-56 68.5t-68.5 56t-78.5 42.5t-86.5 27t-92.5 9.5z
M636 205q0 -11 -8 -18.5t-18 -7.5h-208q-2 0 -5 0.5t-5 1.5t-4 3l-4 2q-2 2 -3.5 4t-2.5 4.5t-1.5 5t-0.5 5.5v363q0 10 8 18t18 8h208q10 0 18 -8t8 -18v-363z" />
    <glyph glyph-name="uniE659" unicode="&#xe659;" 
d="M495 382l-19 40l-19 -40l-44 -5l33 -31l-9 -43l39 21l39 -21l-8 43l32 31zM507 847q-54 0 -105.5 -12t-97 -35t-85.5 -54.5t-71.5 -71.5t-54.5 -85t-35 -97t-12 -106q0 -94 36.5 -179t98 -147t147 -98.5t179.5 -36.5t179 36.5t147 98.5t98.5 147t36.5 179t-36.5 179.5
t-98.5 147t-147 98t-179 36.5zM457 186q-3 -3 -6.5 -4.5t-7.5 -2t-7.5 0t-7 2t-6.5 4.5l-115 115q-5 5 -6.5 11.5t0 12.5t6.5 11l197 198l151 -150zM707 436l-33 -33l-150 150l33 33q5 5 11 6.5t12.5 0t11.5 -6.5l22 -22q-5 -30 18 -53q8 -8 21 -12.5t22 -4.5h9l23 -23
q7 -7 7 -17.5t-7 -17.5z" />
    <glyph glyph-name="uniE65A" unicode="&#xe65a;" 
d="M687 456h-1q-7 -29 -12 -43l-15 -49h43l-9 49q-1 8 -3 25zM512 842q-94 0 -179 -36.5t-147 -98.5t-98.5 -147t-36.5 -179t36.5 -179t98.5 -147t147 -98.5t179 -36.5t179.5 36.5t147 98.5t98 147t36.5 179q0 75 -23.5 145.5t-66 127t-99 99t-127 66t-145.5 23.5zM306 266
l-47 229h49l17 -96q9 -53 12 -81q11 41 24 80l32 97h48l-83 -229h-52zM418 266l11 157l38 72h12l-16 -229h-45zM717 266l-11 60h-57l-18 -60h-46l9 26q-24 -28 -68 -28q-17 0 -32 3.5t-23 9.5l12 43q22 -14 48 -14q32 0 33 25q1 10 -6 17t-24 15q-53 22 -50 67q2 30 24 49.5
t56 19.5q29 0 49 -12l-13 -41q-17 10 -40 10h-6q-4 0 -6.5 -1t-5 -2.5t-4.5 -3t-3.5 -3t-2.5 -3.5t-1.5 -4t-0.5 -4q-1 -7 3 -12.5t10.5 -9.5t20.5 -11q46 -20 46 -61l52 154h58l46 -229h-49z" />
    <glyph glyph-name="uniE65B" unicode="&#xe65b;" 
d="M625 471zM580 470.5q0 18.5 13 31.5t31.5 13t31.5 -13t13 -31.5t-13 -31.5t-31.5 -13t-31.5 13t-13 31.5zM512 842q-94 0 -179 -36.5t-147 -98.5t-98.5 -147t-36.5 -179t36.5 -179t98.5 -147t147 -98.5t179 -36.5t179 36.5t147 98.5t98.5 147t36.5 179q0 75 -23.5 145.5
t-66 127t-99 99t-127 66t-145.5 23.5zM426 507h52q6 0 10.5 -4.5t4.5 -10.5q0 -3 -1 -5.5t-3 -4.5t-5 -3.5t-6 -1.5h-52q-6 0 -10 4.5t-4 10.5q-1 15 14 15zM426 385h89q6 0 10 -4t4 -10q0 -3 -1 -6t-3 -5t-4.5 -3t-5.5 -1h-89q-6 0 -10 4t-4 11q-1 14 14 14zM334 220
q-6 0 -11.5 2.5t-9.5 6t-6 9t-2 11.5q0 8 3.5 14.5t10.5 10.5t15 4q12 0 20.5 -8.5t8.5 -20.5t-8.5 -20.5t-20.5 -8.5zM334 341q-8 0 -15 4t-10.5 11t-3.5 14.5t3.5 14.5t10.5 11t15 4t14.5 -4t10.5 -11t4 -14q0 -13 -8.5 -21.5t-20.5 -8.5zM334 463q-8 0 -15 4t-10.5 10.5
t-3.5 14.5t3.5 14.5t10.5 10.5t15 4q12 0 20.5 -8.5t8.5 -20.5t-8.5 -20.5t-20.5 -8.5zM679 235h-253q-6 0 -10 4t-4 10q0 3 1 5.5t3 4.5t4.5 3.5t5.5 1.5h253q6 0 10 -4.5t4 -10.5q0 -2 -0.5 -4.5t-2 -4t-3.5 -3t-4 -2t-4 -0.5zM624 303q-12 32 -30 57t-31.5 38t-23.5 31
t-10 41q0 26 12.5 48t34.5 34.5t48 12.5q40 0 67.5 -28t27.5 -67q0 -20 -6 -35.5t-16.5 -27.5t-22.5 -24.5t-26 -33t-24 -46.5z" />
    <glyph glyph-name="uniE65C" unicode="&#xe65c;" 
d="M516 842q-93 0 -178.5 -36.5t-147.5 -98.5t-98 -147t-36 -179t36 -179t98 -147t147.5 -98.5t179 -36.5t179 36.5t147 98.5t98 147t36.5 179q0 174 -115 305q-111 126 -277 151q-34 5 -69 5zM724 220h-369v27h18v280q0 4 2.5 7.5t6 5.5t7.5 2h3v30q0 5 2 8.5t5.5 5.5
t7.5 2h163q2 0 4.5 -0.5t4.5 -2t3.5 -3.5t2 -4.5t0.5 -5.5v-30h3q5 0 8.5 -2t5.5 -5.5t2 -7.5v-171q1 1 3 1.5t3 0.5h79q7 0 11.5 -4.5t4.5 -11.5v-95h19v-27zM401 469h175v-19h-175v19zM401 376h175v-18h-175v18zM401 423h175v-19h-175v19zM401 515h175v-19h-175v19z
M466 293h46v-46h-46v46z" />
    <glyph glyph-name="uniE65D" unicode="&#xe65d;" 
d="M517 842q-94 0 -179 -36.5t-147 -98.5t-98.5 -147t-36.5 -179t36.5 -179t98.5 -147t147 -98.5t179 -36.5t179.5 36.5t147 98.5t98 147t36.5 179t-36.5 179t-98 147t-147 98.5t-179.5 36.5zM544 174h-52v142l52 -26v-116zM674 340l-297 -13l-40 46l40 47h297v-80zM660 456
h-271v68l103 10v54h52v-49l116 11l37 -42z" />
    <glyph glyph-name="uniE65E" unicode="&#xe65e;" 
d="M509 842q-93 0 -178.5 -36.5t-147 -98.5t-98 -147t-36.5 -179t36.5 -179t98 -147t147 -98.5t179 -36.5t179 36.5t147 98.5t98 147t36.5 179q0 191 -135 326t-326 135zM506 176q-5 -2 -9.5 -1.5t-8.5 3t-7 7.5l-166 341q-2 5 -1.5 10t3 9t7.5 6q7 3 14 0.5t10 -8.5
l166 -342q4 -7 1.5 -14.5t-9.5 -10.5zM615 368q-33 27 -66.5 22t-59.5 -18.5t-26 -15.5l-91 179q1 2 3.5 5.5t13 11t24.5 11t39 1t55 -14.5q37 -14 68 -35q14 -10 20.5 -8t28.5 23l5 5l5 5l6 6l88 -135q-2 -4 -6 -10.5t-16 -20.5t-24.5 -21.5t-31 -6.5t-35.5 17z" />
    <glyph glyph-name="uniE65F" unicode="&#xe65f;" 
d="M612 415v81h-204v-81l102 40zM512 842q-94 0 -179 -36.5t-147 -98.5t-98.5 -147t-36.5 -179t36.5 -179t98.5 -147t147 -98.5t179 -36.5t179 36.5t147 98.5t98.5 147t36.5 179q0 75 -23.5 145.5t-66 127t-99 99t-127 66t-145.5 23.5zM331 380q2 3 4.5 5.5t5.5 4.5l31 12
v94q0 11 5 20.5t13 15t18 5.5h51l14 51h76l12 -51h51q15 0 25.5 -11.5t10.5 -29.5v-94l31 -14q8 -4 10 -10q0 -1 0.5 -4t0.5 -6t-1 -6l-41 -133q-38 0 -69 41q-31 -41 -69 -41q-13 0 -26 5.5t-23 14.5t-20 21q-27 -41 -68 -41l-42 135q-2 8 0 16zM681 174q-19 0 -48 7.5
t-46 17.5q-36 -20 -75 -20t-75 20q-17 -10 -46 -17.5t-48 -7.5h-20q20 0 49.5 14t48.5 28l20 15q71 -56 140 -2q8 -7 22 -16t46 -24.5t52 -14.5h-20z" />
    <glyph glyph-name="uniE660" unicode="&#xe660;" 
d="M512 842q-93 0 -178.5 -36.5t-147 -98.5t-98 -147t-36.5 -179t36.5 -179t98 -147t147 -98.5t179 -36.5t179 36.5t147 98.5t98 147t36.5 179q0 174 -115 305q-111 126 -277 151q-34 5 -69 5zM323 475.5q18 18.5 43.5 19t44 -18t19 -43.5t-18 -43.5t-44 -19t-44 18
t-18.5 43.5t18 43.5zM720 309h-125v-42h-165v42h-124v40h414v-40zM720 412v-41h-270v124h187q9 0 16.5 -1.5t15 -4.5t14 -7.5t12.5 -11.5q25 -24 25 -58z" />
    <glyph glyph-name="uniE661" unicode="&#xe661;" 
d="M512 842q-94 0 -179 -36.5t-147 -98.5t-98.5 -147t-36.5 -179t36.5 -179t98.5 -147t147 -98.5t179 -36.5t179 36.5t147 98.5t98.5 147t36.5 179q0 75 -23.5 145.5t-66 127t-99 99t-127 66t-145.5 23.5zM500 197q-27 23 -59 23h-113v299h115q21 0 39 -17t18 -29v-276z
M524 473q0 6 3 14.5t8.5 17t11.5 15.5q6 5 15 12t17.5 12.5t18 11t13 7t5.5 2.5l23 -299l-115 -69v276zM696 220h-92l81 23l-43 276h54v-299z" />
    <glyph glyph-name="uniE662" unicode="&#xe662;" 
d="M629 460h-234q-9 0 -16 -6.5t-7 -14.5v-182q0 -9 7 -15.5t16 -6.5h234q9 0 16 6.5t7 15.5v182q0 8 -7 14.5t-16 6.5zM581 334h-56v-55q0 -7 -3.5 -12t-9.5 -5q-3 0 -5.5 1.5t-4 4t-3 5.5t-1.5 6v55h-55q-3 0 -6 1t-5.5 3t-4 4.5t-1.5 5.5q0 5 5 9t12 4h55v55q0 7 4 12
t10 5q4 0 7 -2t4.5 -6t1.5 -9v-55h56q3 0 6 -1t5.5 -3t4 -4.5t1.5 -4.5q0 -4 -2.5 -7t-6.5 -5t-8 -2zM512 842q-94 0 -179 -36.5t-147 -98.5t-98.5 -147t-36.5 -179t36.5 -179t98.5 -147t147 -98.5t179 -36.5t179 36.5t147 98.5t98.5 147t36.5 179q0 75 -23.5 145.5t-66 127
t-99 99t-127 66t-145.5 23.5zM679 230q0 -9 -6.5 -15.5t-15.5 -6.5h-290q-9 0 -15.5 6.5t-6.5 15.5v236q0 9 6.5 15t15.5 6h290q9 0 15.5 -6t6.5 -15v-236zM679 514h-334v7q0 4 2 7.5t5 6.5t7 4.5t8 1.5h23v20q2 14 14 16q4 0 7 -2t4.5 -6t1.5 -8v-20h190v20q0 3 1 6t2.5 5
t4 3.5t5.5 1.5q6 0 10 -4.5t4 -11.5v-20h23q3 0 6.5 -1t6 -3t4.5 -4.5t3.5 -5.5t1.5 -6v-7z" />
    <glyph glyph-name="uniE663" unicode="&#xe663;" 
d="M512 842q-94 0 -179 -36.5t-147 -98.5t-98.5 -147t-36.5 -179t36.5 -179t98.5 -147t147 -98.5t179 -36.5t179 36.5t147 98.5t98.5 147t36.5 179q0 75 -23.5 145.5t-66 127t-99 99t-127 66t-145.5 23.5zM523 427q0 -5 -3 -8.5t-8 -3.5h-81q-3 0 -5.5 1.5t-4 4.5t-1.5 6
q0 5 3 8t8 3h81q2 0 4 -1t4 -2.5t2.5 -3.5t0.5 -4zM431 358q-3 0 -5.5 1.5t-4 4t-1.5 5.5q0 5 3 8.5t8 3.5h115q5 0 8.5 -3.5t3.5 -8.5t-3.5 -8t-8.5 -3h-115zM540 312q0 -5 -3.5 -8.5t-8.5 -3.5h-97q-3 0 -5.5 1.5t-4 4t-1.5 6.5t3 7.5t8 3.5h97q10 -2 12 -11zM420 484.5
q0 4.5 3 8t8 3.5h58q2 0 4 -1t4 -2.5t2.5 -3.5t0.5 -5t-1.5 -5.5t-4 -4t-5.5 -1.5h-58q-5 0 -8 3.5t-3 8zM317 459l24 7l5 -105zM399 174l-16 61l170 -22zM613 205l-117 31l124 -6zM627 265q0 -6 -3 -11t-8.5 -8.5t-11.5 -3.5h-230q-10 0 -16.5 7t-6.5 16v277v4q0 2 1 4l2 4
l2 2q1 2 2.5 3.5t3.5 2.5t3.5 1.5t3.5 1t5 0.5h126q5 0 8.5 -3.5t3.5 -8.5q0 -3 -1.5 -5.5t-4.5 -4t-6 -1.5h-126v-277h230v59l23 -18v-41zM643 238v63l16 -59zM617 340q-7 18 -16 34t-17.5 26.5t-17 20t-15.5 17.5t-13 17t-9 19.5t-3 23.5q0 37 26.5 63.5t64.5 26.5
q24 0 45 -12t33 -33t12 -45q0 -19 -5.5 -33.5t-16 -26t-21.5 -23t-24.5 -31.5t-22.5 -44zM617 499zM575 498.5q0 17.5 12.5 30t30 12.5t30 -12.5t12.5 -30t-12.5 -29.5t-30 -12t-30 12t-12.5 29.5z" />
    <glyph glyph-name="uniE664" unicode="&#xe664;" 
d="M339 513l140 141v-421h65v421l141 -141l43 44l-173 173l-43 43h-1l-43 -43l-173 -173zM674 449v-65h151v-324h-627v324h151v65h-216v-454h757v454h-216z" />
    <glyph glyph-name="uniE665" unicode="&#xe665;" 
d="M922 315q0 18 -8.5 31t-20.5 13q-3 0 -5.5 -1t-4.5 -2l-318 126v177q0 6 -1.5 12.5t-4 14t-6.5 14.5t-8.5 13t-9.5 11t-11 7.5t-12 2.5q-14 0 -26.5 -13.5t-19.5 -30.5t-7 -31v-177l-318 -126q-5 3 -10 3q-12 0 -20.5 -13t-8.5 -31q0 -5 1 -11t3 -10.5t4.5 -8.5t6 -7
t7.5 -4v-2l3 1h1q2 -1 3 -1q5 0 9 3l319 49v-136h-1l-85 -63h2l-22 -63l122 24q16 -25 37 -25q4 0 8.5 1t8.5 3.5t7.5 5.5t7 7t6.5 8l119 -24l-20 63h-1l-83 62v137l319 -49q4 -3 9 -3q1 0 4 1l3 -1v2q6 2 11 8t8 15t3 18z" />
    <glyph glyph-name="uniE666" unicode="&#xe666;" 
d="M839 499h-21q-13 0 -22.5 -9.5t-9.5 -22.5v-158h-548v306q0 13 -9.5 22t-22.5 9h-21q-8 0 -15.5 -4t-11.5 -11.5t-4 -15.5v-443q0 -3 0.5 -6t1.5 -6t3 -5.5t4 -4.5t4.5 -4t5.5 -3l6 -2q3 -1 6 -1h21q13 0 22.5 9.5t9.5 22.5v32h548v-32q0 -13 9.5 -22.5t22.5 -9.5h21
q13 0 22 9.5t9 22.5v295q0 7 -2.5 12.5t-6.5 10t-10 7t-12 2.5zM744 436h-464v-85h464v85z" />
    <glyph glyph-name="uniE667" unicode="&#xe667;" 
d="M894 187v366h-64v-329l-208 -135l-185 167l-3 5l-234 -147v439h-64v-526h64v13l226 141l167 -151l25 -25l276 181v1zM364 467q10 -12 20 -22l115 -144h33l115 145q4 3 7 6.5t5 6t4 4.5l3 3l1 1h-1q12 16 20.5 33.5t13 37.5t4.5 40q0 77 -55.5 131t-133.5 54t-133.5 -54
t-55.5 -131q0 -61 38 -111zM515 700q26 0 49 -10t40 -27t27 -40.5t10 -49.5q0 -14 -3 -27.5t-8.5 -25.5t-13.5 -23l-101 -115q-7 8 -18 21t-34.5 41t-39 45.5t-14.5 15.5q2 -4 5 -8h1h-1v0q-2 4 -3.5 5.5t-1.5 2.5q-20 31 -20 68q0 53 37 90t89 37z" />
    <glyph glyph-name="uniE668" unicode="&#xe668;" 
d="M154 643h716v-60h-716v60zM154 404h716v-60h-716v60zM154 165h716v-60h-716v60z" />
    <glyph glyph-name="uniE669" unicode="&#xe669;" 
d="M464 341h96v224h-94zM464 180h96v96h-96v-96zM512 757q-100 0 -185 -49t-134.5 -134t-49.5 -185t49.5 -185t134.5 -134.5t185 -49.5q43 0 84.5 9.5t77.5 28t68 43.5t57.5 57t43.5 68.5t28 78t10 84.5q0 75 -29.5 143t-79 117.5t-117.5 78.5t-143 29zM512 90
q-124 0 -211.5 87.5t-87.5 211t87.5 211t211.5 87.5t211.5 -87.5t87.5 -210.5q0 -125 -89 -213q-88 -86 -210 -86z" />
    <glyph glyph-name="uniE66A" unicode="&#xe66a;" 
d="M532 682l-43 43l-335 -336v-1l335 -335l43 43l-293 293zM333 419v-60h537v60h-537z" />
    <glyph glyph-name="uniE66B" unicode="&#xe66b;" 
d="M514 382zM369 382q0 60 42.5 102.5t102.5 42.5t102 -42.5t42 -102.5q0 -39 -19 -72t-52.5 -52.5t-72.5 -19.5t-72.5 19.5t-53 52.5t-19.5 72zM834 412q-10 116 -93.5 198.5t-200.5 90.5v82h-55v-82q-127 -13 -210 -111q-66 -78 -75 -178h-82v-56h82q10 -114 90.5 -195.5
t194.5 -93.5v-82h55v82q117 8 200.5 90.5t93.5 198.5h82v56h-82zM517 124q-107 0 -183.5 76t-76.5 184t76.5 184t184 76t183.5 -76t76 -184q0 -71 -35 -130.5t-94.5 -94.5t-130.5 -35z" />
    <glyph glyph-name="uniE66C" unicode="&#xe66c;" 
d="M597 111l-15 -30q2 -3 2 -5q0 -3 -3 -6.5t-7 -6.5l-7 -14l-9 6q-10 -3 -23 -5t-27 -2q-28 0 -49 7l-9 -6l-7 14q-10 6 -10 13q0 2 1 5l-14 30q-37 -20 -37 -49q0 -14 10 -27t27 -22t40 -14.5t48 -5.5q52 0 89 20.5t37 48.5q0 14 -10 27t-27 22zM772 493q0 23 -3.5 45.5
t-10 43t-16 39.5t-21 36t-26 32.5t-31 28t-35 22.5t-38 17t-40.5 10.5t-43 3.5q-109 0 -186 -81.5t-77 -196.5q0 -92 53 -166v-1q7 -9 14 -17.5t14 -15.5l153 -181l4 -10q1 1 2 1h1l23 -27l22 27h1t2 -1l3 8l156 185q5 5 9 9.5t7 8.5t5.5 7t4.5 5l1 2h-1q26 35 39.5 77.5
t13.5 88.5zM508 382q-51 0 -88 36.5t-37 88.5q0 34 17 63t45.5 46t62.5 17q21 0 40 -6.5t34.5 -18t27 -27t18 -34.5t6.5 -40q0 -34 -17 -62.5t-46 -45.5t-63 -17z" />
    <glyph glyph-name="uniE66D" unicode="&#xe66d;" 
d="M164 84h144v406h-144v-406zM628 510v149v1v4h-1q0 11 -3.5 21.5t-9 19.5t-13 16.5t-16.5 13t-18.5 9.5t-20 6t-20.5 2q-15 0 -29.5 -4t-27.5 -12t-23 -19t-16 -26t-6 -32v-83l-53 -86h-1v-58h37l75 128v99q0 34 45 34q20 0 35.5 -7t18.5 -22h-1l-18 -213l229 -36
l-88 -302h-168l-149 44l-16 -5v-68h11l147 -28l235 -1l97 410z" />
    <glyph glyph-name="uniE66E" unicode="&#xe66e;" 
d="M827 100v168q0 12 -8 20.5t-20 8.5h-140q-6 0 -12 -3v303q0 8 -3.5 14t-10 10t-13.5 4h-6v53q0 12 -8 20.5t-19 8.5h-289q-7 0 -13.5 -4t-10.5 -10.5t-4 -14.5v-53h-5q-8 0 -14 -4t-9.5 -10t-3.5 -14v-497h-33v-49h655v49h-33zM483 100h-82v82h82v-82zM598 297h-311v33
h311v-33zM598 379h-311v33h311v-33zM598 461h-311v33h311v-33zM598 543h-311v33h311v-33z" />
    <glyph glyph-name="uniE66F" unicode="&#xe66f;" 
d="M900 24v671q0 16 -8 30t-22 21.5t-30 7.5h-659q-24 0 -41.5 -17t-17.5 -42v-561q0 -16 8 -29.5t21.5 -21.5t29.5 -8h552l111 -83v-9h12h1h43v41v0zM844 66l-87 64l-6 -6v6h-513q-25 0 -43 17.5t-18 42.5v449q0 17 8.5 30.5t22.5 21.5t30 8h545q25 0 43 -17.5t18 -42.5
v-449v-2v-3v-110v-9zM561 456q-5 1 -17 4v100q34 -11 42 -49h96q-2 19 -8.5 36t-16 30t-21.5 23.5t-27 17.5t-31 11.5t-34 7.5v25h-61v-24q-28 -2 -53 -9.5t-47.5 -21t-35.5 -36t-13 -52.5q0 -24 7.5 -43.5t19.5 -32t30.5 -22.5t36 -15t40.5 -10q2 -1 4 -1.5t3.5 -0.5
t4 -0.5t3.5 -1.5v-118q-60 11 -66 70h-92q2 -65 44.5 -101.5t113.5 -42.5v-33h61v33q41 5 73.5 19.5t55.5 44t23 70.5q0 30 -11 51.5t-32 35t-41.5 21.5t-50.5 14zM483 474q-57 16 -57 49q0 36 57 42v-91zM544 274v104q28 -8 43.5 -19.5t16.5 -32.5q2 -43 -60 -52z" />
    <glyph glyph-name="uniE670" unicode="&#xe670;" 
d="M768 436l33 28h56v27h1h-1v1l-307 167h-4q5 19 5 32q0 21 -12 36t-29 15q-12 0 -21.5 -7t-15 -18.5t-5.5 -25.5q0 -13 5 -32h-4l-307 -167h-1v-28h61l29 -28h22v-278h-21l-34 -34v-22h-57v-56h696v56h-55v21l-33 35h-23v278h22zM468 436h83v-278h-83v278zM329 436h84
v-278h-84v278zM690 158h-83v278h83v-278z" />
    <glyph glyph-name="uniE671" unicode="&#xe671;" 
d="M534 578h-47q-4 0 -6.5 -1.5t-5 -3.5t-3.5 -5t-1 -6v-48q0 -3 1 -6t3.5 -5t5 -3.5t6.5 -1.5h47q7 0 11.5 5t4.5 11v48q0 13 -12 15q-2 1 -4 1zM758 638q-70 67 -163 89.5t-184.5 -4t-159 -97t-90 -163t4 -184t97 -159t163 -90t184.5 4t159 96.5q40 42 65 94t31.5 107
t-2.5 109t-36 105t-69 92zM730.5 167q-57.5 -60 -135.5 -82.5t-157 -3t-139 76.5q-91 88 -94 214t84.5 217.5t214 94.5t217.5 -85q60 -57 82.5 -135.5t3.5 -157.5t-76.5 -139zM534 446h-47q-7 0 -11.5 -5.5t-4.5 -12.5v-230q0 -4 1 -7t3.5 -5.5t5 -4t6.5 -1.5h47
q5 0 8.5 2.5t5.5 6.5t2 9v230v4q0 2 -1 4l-2 2q-1 2 -2.5 3.5t-3 2.5t-3.5 1.5t-4 0.5z" />
    <glyph glyph-name="uniE672" unicode="&#xe672;" 
d="M667 335h-312q-10 0 -15.5 -4.5t-6 -9.5t-0.5 -16t0.5 -16t6 -9.5t15.5 -4.5h312q15 0 19.5 7.5t4.5 22.5q0 7 -0.5 11.5t-3 9.5t-7.5 7t-13 2zM667 513h-312q-10 0 -15.5 -4.5t-6 -9.5t-0.5 -15.5t0.5 -15.5t6 -9.5t15.5 -4.5h312q11 0 16.5 4.5t6.5 10t1 15t-1 15.5
t-6.5 10t-16.5 4zM691 97h9l-9 6v-6zM870 197v453q0 18 -12 30t-29 12h-635q-8 0 -15.5 -3t-13 -9t-8.5 -13.5t-3 -16.5v-510q0 -18 12 -30.5t29 -12.5h436v59h-89h-297q-9 0 -16.5 4t-11.5 11.5t-4 16.5v413q0 8 4 15.5t11.5 12t16.5 4.5h534q13 0 22.5 -9.5t9.5 -22.5
v-413q0 -13 -9.5 -22.5t-22.5 -9.5h-88v-1l76 -54v-4h1q1 0 1 -1t1 -1q2 -2 11.5 -8.5t22 -14t24.5 -14.5t21 -12.5t10 -6.5q4 -4 7.5 -0.5t3.5 11.5v145v1v1z" />
    <glyph glyph-name="uniE673" unicode="&#xe673;" 
d="M231 453l43 33q-7 13 -7 27q0 16 8.5 30t22.5 22t31 8v0l2 -1q13 0 24 -5q3 -1 6.5 -2t7.5 -1l-2 4l60 75l-98 -3l-55 78l-27 -91l-93 -26l80 -53zM527 576q32 -9 61.5 7.5t38.5 48.5t-8 60.5t-50 36.5q-16 5 -32.5 2.5t-30 -10t-23.5 -20t-14 -28.5q-6 -21 -0.5 -41.5
t21 -35.5t37.5 -20zM300 390l-20 28l-10 -33l-34 -10l29 -19l-1 -35l29 21l33 -12l-12 33l22 28zM870 384l-52 11l-17 49l-28 -44l-53 -1l35 -39l-16 -50l50 20l43 -29l-4 51zM440 244l-186 49q-2 1 -4.5 2t-4.5 1q-16 5 -31 -3.5t-19 -24.5q-3 -10 0 -20.5t10.5 -18
t18.5 -10.5h1h1v-2l235 -61v2q7 -1 13 -0.5t11.5 2.5t10 6t8 9t5.5 11l22 78l-86 -1zM698 275q4 16 -4.5 30t-24.5 19l-114 29l36 128q37 5 75 13t66 15.5t50.5 14t34.5 11.5l11 4v1q7 2 12.5 7t9 11.5t4.5 13.5t-1 15q-3 10 -11 17.5t-18.5 10.5t-20.5 0q-7 -2 -13 -6h-1
q-5 -3 -14.5 -7.5t-41.5 -16.5t-66.5 -21.5t-87.5 -17.5t-106 -9q-14 0 -29 0.5t-27.5 2t-24.5 3.5t-20.5 4t-15.5 3.5t-10 2.5l-4 1v-2q-7 3 -13 3q-17 0 -29 -12t-12 -28q0 -11 5.5 -20t15 -14.5t20.5 -5.5q34 -3 112 -4q28 -1 62 1l-49 -175l128 -33h-1l28 -8l-52 -191
q-4 -16 4.5 -30t24.5 -18.5t31 4t19 24.5l63 228h-2q0 1 1 1v1z" />
    <glyph glyph-name="uniE674" unicode="&#xe674;" 
d="M512 498v192l1 1q0 5 -1.5 9t-4 7.5t-6 6t-8 4t-8.5 1.5q-12 0 -20 -8t-8 -20v-1v-192h-55v188l-1 1v2q1 1 1 2q0 11 -7.5 18.5t-17.5 8.5l-1 1h-1h-1q-4 0 -8.5 -1.5t-7.5 -4t-5.5 -6t-4 -7.5t-1.5 -9l1 -6l-1 -1v-186h-56v192v1h1q0 3 -1 5l-2 6q-1 2 -2.5 4.5t-3 4
t-4 3t-5.5 2.5l-4 2q-3 1 -6 1q-12 0 -20 -8t-8 -19l1 -194h-1l1 -20h-1l1 -1v-5q3 -25 22 -42.5t45 -17.5q4 0 7.5 0.5t7.5 1.5v-61q-16 -5 -21 -20l-7 -6v-216q0 -22 11.5 -41t30.5 -30t41 -11q35 0 59 24t24 59v217l-28 26v60h20v1q18 1 32.5 8.5t22.5 19.5t8 27h-2l2 1
v26zM623 570v-14v-302l1 -1v0q0 -14 9 -23.5t22 -9.5h1q1 0 1 1h49v-159v-1q0 -11 12 -20.5t25 -11.5v0h1h2h4h4h1h2q8 0 15 4t11 11t5 15v1v362v297q-61 0 -113 -44.5t-52 -104.5z" />
    <glyph glyph-name="uniE675" unicode="&#xe675;" 
d="M337 338h344v57h-344v-57zM681 682v86h-57v-86h-230v86h-57v-86h-143v-631h630v631h-143zM767 109h-516v516h86v-29h57v29h230v-29h57v29h86v-516zM337 481h344v58h-344v-58zM337 195h201v57h-201v-57z" />
    <glyph glyph-name="uniE676" unicode="&#xe676;" 
d="M642 333h-107v108q0 9 -3.5 16.5t-10 11.5t-13.5 4q-5 0 -10 -2.5t-8.5 -7t-5.5 -10.5t-2 -12v-108h-107q-14 0 -23.5 -7.5t-9.5 -18.5q0 -7 4.5 -13t12 -9.5t16.5 -3.5h107v-107q0 -4 0.5 -7.5t2 -7t3.5 -6.5t4 -5t4.5 -3.5t5.5 -2.5t6 -1q11 0 19 9.5t8 23.5v107h107
q14 0 23.5 7.5t9.5 18.5q0 4 -1.5 8t-4.5 7.5t-7 6t-9 3.5t-11 1zM790 578h-563q-18 0 -30.5 -12t-12.5 -29v-459q0 -18 12.5 -30t30.5 -12h563q7 0 13.5 2t11.5 6t9 9t6.5 11.5t2.5 13.5v459q0 4 -1 8t-2.5 8t-4 7t-5.5 6t-6 5l-8 4q-3 2 -7 2.5t-9 0.5zM780 130
q0 -17 -13 -29t-31 -12h-455q-18 0 -31 12t-13 29v354q0 17 13 29.5t31 12.5h455q18 0 31 -12.5t13 -29.5v-354zM790 683h-45v39q0 8 -3.5 15t-9.5 11.5t-13 4.5q-11 0 -19 -9t-8 -22v-39h-368v39q0 6 -2 12t-5.5 10t-8 6.5t-10.5 2.5q-11 0 -18.5 -9t-7.5 -22v-39h-45
q-18 0 -30.5 -11.5t-12.5 -28.5v-13h649v13q0 11 -6 20t-15.5 14.5t-21.5 5.5z" />
    <glyph glyph-name="uniE677" unicode="&#xe677;" 
d="M860 455v38l-231 33l-100 210h-34l-100 -210l-231 -32v-39l158 -155l-38 -218l41 -22l-1 -1l188 102l188 -102l-1 2l40 21l-38 218z" />
    <glyph glyph-name="uniE678" unicode="&#xe678;" 
d="M777 448q-2 2 -5 4t-6.5 2.5t-7 0t-6.5 -2.5l-252 -166l-253 166q-3 2 -6.5 2.5t-7 0t-6 -2.5t-5.5 -4q-4 -6 -2.5 -13t7.5 -11l262 -172q5 -3 11 -2q2 -1 5 0t5 2l262 172q4 3 6 7t1.5 8.5t-2.5 8.5z" />
    <glyph glyph-name="uniE679" unicode="&#xe679;" 
d="M480 415h-328v-62h328v-327h61v716h-61v-327zM603 415v-62h266v62h-266z" />
    <glyph glyph-name="uniE67A" unicode="&#xe67a;" 
d="M468 732q-80 0 -148 -39.5t-107.5 -107.5t-39.5 -148.5t39.5 -148.5t107.5 -107.5t148 -39.5t148 39.5t107.5 107.5t39.5 148q0 123 -86.5 209.5t-208.5 86.5zM468 203q-97 0 -165.5 68.5t-68.5 165t68.5 165t165.5 68.5q63 0 117 -31t85 -85t31 -118q0 -96 -68 -164.5
t-165 -68.5zM741 228l-44 -43l149 -149l43 44z" />
    <glyph glyph-name="uniE67B" unicode="&#xe67b;" 
d="M483 753q-83 0 -132.5 -43.5t-49.5 -109.5v-422q0 -66 50.5 -114.5t129.5 -48.5q76 1 123.5 49t47.5 114v422q0 65 -47 109t-122 44zM477 163q-34 0 -59 25t-25 59q0 33 25 57t59 24q23 0 41.5 -10.5t29.5 -29.5t11 -41q0 -14 -4 -26.5t-11.5 -23t-17.5 -18.5t-22.5 -12
t-26.5 -4zM477 458q-34 0 -59 25t-25 59q0 33 25 57t59 24t58 -24t24 -57q0 -14 -4 -26.5t-11.5 -23t-17.5 -18.5t-22.5 -12t-26.5 -4zM835 300q-3 12 -12 19.5t-20 7.5l-1 1h-95v-184l118 120l-1 1q15 15 11 35zM825 559l-1 1q15 15 11 34q-2 9 -7 15t-11.5 9.5t-13.5 3.5
l-1 1l-95 -1v-183z" />
    <glyph glyph-name="uniE67C" unicode="&#xe67c;" 
d="M231 667q-4 7 -10.5 11.5t-14.5 5t-15 -2.5q-11 -6 -15.5 -17.5t1.5 -22.5l270 -557q6 -12 17.5 -16t22.5 2q8 3 12.5 10t5 14.5t-3.5 15.5zM706 670q-10 -9 -27 -25q-36 -34 -46 -37t-33 13q-14 9 -24 15.5t-34.5 19t-52.5 22.5q-49 19 -89.5 23.5t-63.5 -2.5t-39 -17
t-22 -19l-5 -9l147 -291l17 11q10 7 41 21.5t60 20.5t65.5 -1t64.5 -32q75 -70 155 24q18 22 30 44z" />
    <glyph glyph-name="uniE67D" unicode="&#xe67d;" 
d="M813 466v1h-9h-1h-1h-67l-59 123q4 5 6.5 10.5t2.5 12.5q0 10 -5 18t-13.5 13t-18.5 5v0h-254v0q-16 0 -26.5 -10.5t-10.5 -25.5q0 -7 2.5 -12.5t6.5 -10.5l-58 -123h-69v0h-1h-8v-1q-11 -2 -19 -8t-13 -15.5t-5 -20.5q0 -17 10.5 -29.5t26.5 -15.5v-1h6h2h-8l16 -223
l3 -3q1 -8 5 -14.5t9.5 -10t11.5 -3.5h1h1l1 -1h486l1 1h1h1q9 0 16.5 7.5t9.5 19.5l3 3l16 224h-573h1h1h560h1h1h1h2h6v1q16 3 26.5 15.5t10.5 29.5q0 6 -2 12t-5 11.5t-7.5 9.5t-10 7t-11.5 4zM685 358h55v-146h-55v146zM557 358h55v-146h-55v146zM430 358h55v-146h-55
v146zM302 358h55v-146h-55v146zM345 467l49 102v7h1l1 1h250h1l1 -1v-7l49 -102h-352z" />
    <glyph glyph-name="uniE67E" unicode="&#xe67e;" 
d="M512 701q-43 0 -83.5 -2t-72.5 -6.5t-56.5 -10t-37.5 -13t-13 -14.5v-477q0 -16 10 -27t25 -11v-30q0 -8 7 -15.5t16 -7.5h53q6 0 11.5 3.5t8.5 9t3 10.5v30h261v-30q0 -15 16 -21q4 -2 7 -2h53q15 0 22 16q1 4 1 7v30q9 1 16.5 6t11.5 13.5t4 18.5v477q-2 18 -80 32
t-183 14zM415 663h188q8 0 12.5 -5t4.5 -12q0 -8 -5 -13t-12 -5h-188q-8 0 -12.5 5.5t-4.5 12.5q0 6 5.5 11.5t11.5 5.5zM418 251h-76q-17 0 -17 17q0 10 3.5 14t13.5 4h76q18 0 18 -18q0 -7 -4 -12t-14 -5zM538 327h-108l38 76h-55l-39 -76h-49v225q0 16 10 27t25 11h304
q15 0 25 -11t10 -27v-225h-105l32 76h-50zM585 268q0 7 1.5 10.5t5.5 5.5t11 2h76q17 0 17 -18q0 -6 -1 -9.5t-5 -5.5t-11 -2h-76q-18 0 -18 17zM585 268z" />
    <glyph glyph-name="uniE67F" unicode="&#xe67f;" 
d="M302 148q30 0 57 17t45 44q46 -61 102 -61t102 61q46 -61 102 -61l61 198q1 3 1 6v6q0 3 -0.5 6.5t-0.5 4.5q-2 6 -5.5 9t-9.5 6l-46 20v140q0 10 -2.5 19.5t-7.5 17t-11.5 13t-14.5 8.5t-17 3h-75l-18 76h-113l-21 -76h-75q-22 0 -37.5 -18.5t-15.5 -42.5v-140l-46 -17
q-10 -5 -15 -15q-2 -6 -2 -11t2 -12zM355 544h302v-119l-151 58l-151 -58v119zM611 148q-51 -39 -103.5 -38t-103.5 41q-12 -9 -32.5 -23t-67 -37.5t-75.5 -23.5h30q28 0 70.5 11t68.5 26q53 -30 111 -30t111 30q25 -15 67.5 -26t71.5 -11h29q-28 -2 -75 20.5t-67.5 36.5
t-34.5 24v0zM611 148z" />
    <glyph glyph-name="uniE680" unicode="&#xe680;" 
d="M755 418h-8q-1 4 -2.5 10.5t-2.5 11.5q-1 2 -3.5 8.5t-6.5 15t-9 18.5l-10 20q-5 10 -11 19t-11 16q-23 26 -66 38.5t-110 12.5q-136 0 -175 -51q-16 -18 -32 -51.5t-20 -45.5q-5 -17 -5 -22h-8q-13 0 -23.5 -3t-16.5 -8t-10 -11.5t-5.5 -13t-1.5 -13.5q2 -13 16 -19
l33 -5q-6 -31 -10 -66t-4 -69v-57q0 -8 5.5 -13.5t13.5 -5.5h38q5 0 9.5 2.5t7 7t2.5 9.5v22h372v-19q0 -8 5.5 -13.5t13.5 -5.5h38q5 0 9.5 2.5t7 7t2.5 9.5v57q0 67 -13 135l32 5q6 0 11 5.5t5 13.5t-2.5 15.5t-8.5 14.5t-17.5 11.5t-28.5 4.5zM318 251q-20 0 -26 18
q-1 5 -1 9q0 5 2 9.5t5.5 8.5t8.5 6.5t11 2.5q20 0 26 -19q1 -5 1 -8q0 -13 -7.5 -20t-19.5 -7zM710 251q-11 0 -19 7.5t-8 19.5q0 10 7.5 18.5t19.5 8.5q6 0 12.5 -3.5t10.5 -10t4 -13.5q0 -4 -1.5 -8t-3 -7t-4 -5t-5.5 -4t-6.5 -2.5t-6.5 -0.5zM515 342q-131 0 -205 30
q12 58 28 91.5t29 46.5q32 38 148 38t149 -38q35 -35 56 -138q-33 -13 -85.5 -21.5t-119.5 -8.5zM515 342z" />
    <glyph glyph-name="uniE681" unicode="&#xe681;" 
d="M677 145h14q14 0 24.5 10.5t10.5 25.5v398q0 15 -10.5 25.5t-24.5 10.5h-111q0 24 -6.5 39t-22 24t-40.5 9q-38 0 -55 -17t-17 -55h-108q-15 0 -25.5 -10.5t-10.5 -25.5v-398q0 -15 10.5 -25.5t25.5 -10.5h14l-50 -72h63l61 72h186l58 -72h66zM331 269q0 17 11 17h77
q11 0 11 -16.5t-11 -16.5h-77q-11 0 -11 16zM475 325h-144v188q0 11 7 19.5t18 8.5h119v-216zM511 579q-15 0 -25.5 11t-10.5 25.5t10.5 25t25 10.5t25.5 -10.5t11 -25.5t-10 -25.5t-26 -10.5zM547 541h119q10 0 17.5 -8t7.5 -20v-191h-144v219v0zM605 253q-11 0 -11 16.5
t11 16.5h77q11 0 11 -16.5t-11 -16.5h-77zM605 253z" />
    <glyph glyph-name="uniE682" unicode="&#xe682;" 
d="M528 465v162l283 -243l-283 -243v162h-311v162h311v0zM528 465z" />
    <glyph glyph-name="uniE683" unicode="&#xe683;" 
d="M617 639v52h-193v-52h-211v-53h615v53h-211zM424 551v-386h53v386h-53zM565 551v-386h52v386h-52zM705 129h-369v422h-52v-474h474v474h-53v-422z" />
    <glyph glyph-name="uniE684" unicode="&#xe684;" 
d="M350.5 388q-31.5 -31 -73.5 -32t-73 30t-32 73.5t30 73.5t73.5 32t73.5 -30t32 -73.5t-30.5 -73.5zM173 321h695v-69h-209v-70h-277v70h-209v69zM868 425v-68h-452v209h313q57 0 98 -42t41 -99z" />
    <glyph glyph-name="uniE685" unicode="&#xe685;" 
d="M812 481q0 131 -87 223.5t-210 92.5q-40 0 -78.5 -11.5t-71.5 -32t-60 -49.5t-46.5 -63.5t-30 -75.5t-10.5 -84q0 -105 60 -189v-1q8 -10 15.5 -19.5t16.5 -18.5l205 -245l208 248q5 5 10 10.5t8.5 10t6 8t3.5 5.5l2 2h-1q60 84 60 189zM515 245q-102 0 -174 73.5
t-72 177t72 177t174 73.5t174 -73.5t72 -177t-72 -177t-174 -73.5zM650 461q-2 12 -15 13h-44l1 -84l54 55h-1q7 7 5 16zM488 670q-38 0 -60.5 -20t-22.5 -51v-194q0 -15 6 -28.5t16.5 -24t26 -16.5t33.5 -6q14 0 27 4t22 11.5t16 16.5t10.5 20t3.5 23v194q0 20 -9.5 36
t-27.5 25.5t-41 9.5zM486 398q-8 0 -15 3t-12.5 8.5t-8.5 12.5t-3 15q0 15 11.5 26t27 11t26.5 -11t11 -26.5t-11 -27t-26 -11.5zM485.5 534q-10.5 0 -19 5t-14 14t-5.5 19q0 16 11.5 27t27.5 11q3 0 6.5 -0.5t6.5 -1.5t5 -3l6 -4l4.5 -4.5t4 -5t2.5 -5.5t1.5 -6.5t0.5 -7.5
q0 -10 -5 -19t-13.5 -14t-19 -5zM635 610h-44l1 -85l54 56h-1q7 7 5 16q-2 12 -15 13z" />
    <glyph glyph-name="uniE686" unicode="&#xe686;" 
d="M819 481q0 131 -87 223.5t-210 92.5t-210 -92q-87 -93 -87 -224q0 -105 60 -189l1 -1q4 -7 9 -13t10.5 -12.5t11.5 -12.5l206 -245l207 248q8 8 15.5 17t11.5 14l3 5q59 84 59 189zM522 245q-102 0 -174 73.5t-72 177t72 177t174 73.5t174 -73.5t72 -177t-72 -177
t-174 -73.5zM404 611q-6 12 -18 6q-5 -2 -6.5 -7.5t0.5 -10.5l121 -250q6 -12 18 -6t7 18zM520 616q-38 13 -60 10.5t-30 -11.5l-8 -10l66 -131q3 2 7.5 5.5t18.5 9.5t27 9t29.5 0t28.5 -15q23 -20 41.5 -10.5t30 24t11.5 17.5l-64 98q-5 -4 -12 -11q-17 -15 -21.5 -16.5
t-14.5 5.5q-22 15 -50 26z" />
    <glyph glyph-name="uniE687" unicode="&#xe687;" 
d="M814 481q0 131 -87 223.5t-211 92.5q-40 0 -78.5 -11.5t-71 -32t-60 -49.5t-46.5 -63.5t-30 -75.5t-11 -84q0 -105 60 -189l1 -1q7 -10 15 -19.5t16 -18.5l206 -245l207 248q18 18 30 36q60 84 60 189zM516 245q-102 0 -174 73.5t-72 177t72 177t174 73.5t174.5 -73.5
t72.5 -176.5q0 -68 -33 -126t-90 -91.5t-124 -33.5zM652 542h-4v0h-32l-27 57q2 3 3 5.5t1 5.5q0 7 -5 12t-12 5h-1h-118q-7 0 -12 -5t-5 -12q0 -6 4 -11l-27 -57h-32h-1h-3q-17 -4 -17 -21t17 -21h3h1h-4l7 -104l1 -2q3 -13 13 -13h1h227v0h1q10 0 12 13l2 1l7 105h-267h1
h261h1v0h1h3q17 4 17 21q0 5 -2 9.5t-6 7.5t-9 4zM593 491h25v-68h-25v68zM533 491h26v-68h-26v68zM474 491h25v-68h-25v68zM414 491h26v-68h-26v68zM434 542l23 48v3h1h117h1v-3l22 -48h-164z" />
    <glyph glyph-name="uniE688" unicode="&#xe688;" 
d="M809 481q0 131 -87 223.5t-210 92.5q-40 0 -78.5 -11.5t-71.5 -32t-60 -49.5t-46.5 -63.5t-30 -75.5t-10.5 -84q0 -105 60 -189v-1q8 -10 15.5 -19.5t16.5 -18.5l205 -245l208 248q5 5 10 10.5t8.5 10t6 8t3.5 5.5l2 2h-1q60 84 60 189zM512 245q-102 0 -174 73.5
t-72 177t72 177t174 73.5t174 -73.5t72 -177t-72 -177t-174 -73.5zM520 558v0v1l-4 83v0v1q-1 4 -4 7t-7 3q-8 -2 -10 -10v-1v0v-83h-25v79h-1q0 1 0.5 1t0.5 1q0 5 -3.5 8.5t-8.5 3.5v1h-1v-1q-5 0 -9 -3.5t-4 -8.5v-2v-1v-78h-25v83v0v1q-1 3 -2.5 5t-3.5 3.5t-5 1.5
t-5 -1.5t-3.5 -3.5t-1.5 -5v-1h-1h1l-5 -83v-13q0 -8 4 -14.5t10.5 -10.5t14.5 -4h13v-26h-2q-6 0 -10 -4t-4 -10v-94q1 -15 12 -25.5t26 -10.5t26 10.5t12 25.5v2v0v89v3q0 4 -2 7.5t-5 5t-7 1.5h-1v1h-2v25h13v0q8 0 15 4t11 10.5t4 14.5h-1v12zM554 587v-6v-134l1 -1
q0 -6 4 -10t10 -4h1h27v-70v-1q0 -13 13 -14v0h1h2h2h1q3 0 5.5 1t4.5 3t3 4.5t1 4.5l1 1v160v132q-29 0 -53 -20t-24 -46z" />
    <glyph glyph-name="uniE689" unicode="&#xe689;" 
d="M795 481q0 131 -87 223.5t-210 92.5q-41 0 -79.5 -11.5t-71 -32t-60 -49.5t-46.5 -63.5t-30 -75.5t-11 -84q0 -105 60 -189l1 -1q7 -10 15 -19.5t16 -18.5l206 -245l207 248q8 8 15.5 17t11.5 14l3 5q60 84 60 189zM497 245q-50 0 -95.5 20t-78.5 53.5t-52.5 80
t-19.5 97.5q0 103 72 176.5t174 73.5t174.5 -73.5t72.5 -176.5q0 -41 -12.5 -79.5t-35.5 -69t-53 -53.5t-68 -36t-78 -13zM616 410v0v1q0 3 -1.5 6t-4.5 4.5t-6 1.5h-1v0h-4v94h-25v-94h-34v94h-26v-94h-33v94h-26v-94h-34v94h-25v-94h-3h-1h-1q-5 0 -8.5 -3.5t-3.5 -8.5v-1
v0v-20h-26v-26h289v26h-26v20zM391 517h1h1h209h1h1q5 0 8.5 3.5t3.5 9.5v0v12h-12h-1h-211h-1h-12v-11v-1q0 -6 3.5 -9.5t8.5 -3.5zM523 653q0 10 -7.5 17.5t-18 7.5t-18 -7.5t-7.5 -17.5q0 -8 4 -20l-123 -65h289l-124 65q5 12 5 20zM353 542h289v26h-289v-26z" />
    <glyph glyph-name="uniE68A" unicode="&#xe68a;" 
d="M802 481q0 131 -87 223.5t-210 92.5q-40 0 -78.5 -11.5t-71.5 -32t-60 -49.5t-46.5 -63.5t-30 -75.5t-10.5 -84q0 -105 60 -189v-1q7 -10 15 -19.5t17 -18.5l205 -245l208 248q17 18 30 36h-1q60 84 60 189zM505 245q-102 0 -174 73.5t-72 177t72 177t174 73.5
q50 0 95.5 -20t78.5 -53.5t52.5 -79.5t19.5 -97q0 -104 -72 -177.5t-174 -73.5zM598 525h-186v-34h186v34zM636 551h-8q-4 0 -6.5 -2t-4.5 -5t-2 -6v-64h-220v123q0 6 -4 9.5t-9 3.5h-9q-11 -1 -12 -13v-178q0 -2 0.5 -4t1.5 -3.5t2.5 -2.5t3.5 -2t4 -1h9q2 0 4.5 1t4.5 3
t3 4.5t1 4.5v13h220v-13q0 -2 1 -4t2 -3.5t2.5 -2.5t3.5 -2t4 -1h8q6 0 9.5 4t3.5 9v119q0 5 -3.5 9t-9.5 4z" />
    <glyph glyph-name="uniE68B" unicode="&#xe68b;" 
d="M670 488q0 7 -3.5 12.5t-8.5 5.5q-1 0 -4 -2l-128 51v72q0 9 -6.5 19.5t-15 10.5t-15 -10.5t-6.5 -19.5v-72l-128 -51q-2 2 -4 2q-5 0 -8.5 -5.5t-3.5 -12.5q0 -13 9 -17h1h2q2 0 3 1l129 19v-54l-35 -26h1l-9 -25l49 9q7 -10 16 -10q4 0 8 3t7 7l48 -9l-8 25l-34 25v55
l129 -19q2 -1 3 -1h2h1q9 4 9 17zM802 481q0 131 -87 223.5t-210 92.5q-41 0 -79.5 -11.5t-71 -32t-60 -49.5t-46.5 -63.5t-29.5 -75.5t-10.5 -84q0 -105 59 -189l1 -1q7 -10 15 -19.5t16 -18.5l206 -245l207 248q8 8 15.5 17t11.5 14l3 5q60 84 60 189zM504 245
q-102 0 -174 73.5t-72 177t72 177t174 73.5t174.5 -73.5t72.5 -177t-72.5 -177t-174.5 -73.5z" />
    <glyph glyph-name="uniE68C" unicode="&#xe68c;" 
d="M814 473q0 66 -24 126.5t-65.5 104.5t-98.5 70t-120 26q-84 0 -155 -44t-112 -119.5t-41 -163.5q0 -109 62 -197v-1q16 -21 33 -39l213 -255l216 258q8 8 16 17.5t11 14.5l4 5h-1q62 88 62 197zM506 228q-69 0 -128 34.5t-93.5 94.5t-34.5 130q0 108 75 184t181 76
q69 0 128 -34.5t93 -94.5t34 -131q0 -113 -81 -190q-74 -69 -174 -69zM506 651q-39 0 -72.5 -3t-52.5 -9t-19 -13v-261q0 -9 5.5 -15t13.5 -6v-16q0 -5 4 -9t9 -4h29q5 0 9 4t4 9v16h142v-16q0 -5 4 -9t9 -4h29q9 0 12 10q1 2 1 3v16q17 3 17 21v261q-2 16 -87 23
q-28 2 -57 2zM453 631h103q9 0 9 -10t-9 -10h-103q-9 0 -9 10q0 2 1 4.5t3.5 4t4.5 1.5zM455 405h-42q-9 0 -9 9.5t9 9.5h42q9 0 9 -9.5t-9 -9.5zM521 446h-60l21 42h-30l-21 -42h-27v124q0 2 0.5 5t1.5 5t3 4t4 3.5t4.5 2t5.5 0.5h166q3 0 5.5 -0.5t4.5 -2t4 -3.5t3 -4
t2 -5t1 -5v-124h-58l18 42h-28zM546 414q0 10 10 10h41q10 0 10 -9.5t-10 -9.5h-41q-10 0 -10 9zM546 414z" />
    <glyph glyph-name="uniE68D" unicode="&#xe68d;" 
d="M830 473q0 66 -24.5 126.5t-66 104.5t-98.5 70t-119.5 26t-119.5 -26t-98.5 -70t-66 -104.5t-24.5 -126.5q0 -109 62 -197l1 -1q4 -5 7.5 -10t8 -10t8.5 -9.5t9 -9.5l213 -255l215 258q9 8 16.5 17.5t11.5 14.5l3 5q62 88 62 197zM521 228q-105 0 -180 76t-75 183.5
t75 183.5t180 76q70 0 129 -34.5t93 -94.5t34 -131q0 -113 -81 -190q-75 -69 -175 -69zM416 363q31 0 52 31q11 -14 24 -22.5t28 -8.5t28 8.5t24 22.5q5 -7 11 -12.5t12.5 -9.5t13.5 -6.5t15 -2.5l31 101q1 2 1 4t-0.5 4.5t-0.5 3.5q-1 3 -2.5 4.5t-4.5 2.5l-24 11v71
q0 8 -3.5 15.5t-10 11.5t-13.5 4h-38l-9 38h-58l-11 -38h-38q-7 0 -13.5 -4.5t-10 -11.5t-3.5 -15v-71l-24 -9q-4 -3 -7 -8q-2 -6 0 -12zM443 565h154v-61l-77 30l-77 -30v61zM573 363q-16 -13 -34 -17.5t-36 0.5t-35 18l-40 -26q-31 -16 -49 -17h15q15 0 36.5 6t34.5 14
q27 -16 56.5 -16t56.5 16q6 -4 15.5 -7.5t19.5 -6t19.5 -4.5t16.5 -2h15q-9 0 -22 4t-24.5 10.5t-21.5 12.5t-16 11l-7 4v0zM573 363z" />
    <glyph glyph-name="uniE68E" unicode="&#xe68e;" 
d="M827 473q0 66 -24.5 126.5t-65.5 104.5t-98 70t-120 26t-120 -26t-98.5 -70t-65.5 -104.5t-24 -126.5q0 -109 62 -197v-1l16 -20q8 -10 17 -19l213 -255l216 258q8 8 15.5 17.5t11.5 14.5l4 5h-1q30 42 46 92t16 105zM519 228q-106 0 -181 76t-75 183.5t75 183.5t181 76
q69 0 128 -34.5t93 -94.5t34 -131q0 -113 -81 -190q-74 -69 -174 -69zM663 532h-5q-1 1 -1.5 3t-0.5 3t-0.5 3t-0.5 4q-1 3 -6 13.5t-12 23.5t-13 21q-26 30 -105 30q-82 0 -105 -30q-10 -11 -19.5 -31t-11.5 -27q-3 -10 -3 -13h-5q-10 0 -17 -3t-10.5 -7.5t-5 -9
t-1.5 -10.5q0 -8 10 -11l19 -3q-8 -40 -8 -81v-34q0 -11 11 -11h23q11 0 11 11v13h223v-11q0 -12 12 -12h22q12 0 12 12v34q0 40 -8 81l19 3q4 0 7 3t3 8q0 7 -2.5 12.5t-10.5 10.5t-21 5zM401 431q-3 0 -6 1.5t-5 3.5t-3.5 5t-1.5 7t2 7.5t5.5 6t8.5 2.5q3 0 6 -1.5t5 -3.5
t3.5 -5t1.5 -6q0 -17 -16 -17zM635 431q-4 0 -7.5 2t-6 6t-2.5 9q0 3 1 5.5t3.5 5t5.5 4t6 1.5q4 0 8 -2t6 -6t2 -8.5t-2 -8.5t-6 -6t-8 -2zM519 486q-79 0 -123 18q13 62 34 83q19 22 89 22q39 0 59.5 -6t29.5 -16q21 -21 34 -83q-45 -18 -123 -18zM519 486z" />
    <glyph glyph-name="uniE68F" unicode="&#xe68f;" 
d="M821 473q0 88 -41 163.5t-112 119.5t-155 44q-63 0 -120 -26t-98 -70t-65.5 -104.5t-24.5 -126.5q0 -109 62 -197v-1l8 -10l8 -10q4 -5 8.5 -9.5t8.5 -9.5l213 -255l216 258q5 5 10 11t8.5 10.5t6.5 8t5 5.5l1 2h-1q62 88 62 197zM513 228q-106 0 -181 76t-75 183.5
t75 183.5t181 76q69 0 128 -34.5t93 -94.5t34 -131q0 -113 -81 -190q-74 -69 -174 -69zM606 351h7q4 0 8 1.5t6.5 4.5t4.5 6.5t2 7.5v224q0 4 -2 8t-4.5 6.5t-6.5 4t-8 1.5h-62q0 41 -39 41q-21 0 -30.5 -10t-9.5 -31h-61q-4 0 -7.5 -1.5t-6.5 -4t-4.5 -6.5t-1.5 -8v-224
q0 -5 2.5 -10t7.5 -7.5t10 -2.5h8l-28 -41h36l34 41h104l33 -41h37zM411 421q2 8 6 9h44q6 0 6 -9q-1 -9 -6 -9h-44q-6 0 -6 9zM492 452h-81v106q0 6 4 10.5t10 4.5h67v-121zM512 595q-8 0 -14 6t-6 14.5t6 14.5t14 6t14.5 -6t6.5 -15q0 -8 -6 -14t-15 -6zM533 573h66
q4 0 7.5 -1.5t5 -5.5t1.5 -8v-108h-80v123v0zM565 412q-5 1 -6 9q1 8 6 9h44q5 -1 6 -9q-1 -9 -6 -9h-44zM565 412z" />
    <glyph glyph-name="uniE690" unicode="&#xe690;" 
d="M823 473q0 88 -41.5 163.5t-112.5 119.5t-155 44q-62 0 -119.5 -26t-98.5 -70t-65.5 -104.5t-24.5 -126.5q0 -109 62 -197v-1l16 -20q8 -10 17 -19l214 -255l215 258q8 8 16 17.5t11 14.5l4 5q19 28 33 59t21.5 66t7.5 72zM514 228q-106 0 -180.5 76t-74.5 183.5
t74.5 183.5t180.5 76q70 0 128.5 -34.5t93 -94.5t34.5 -131q0 -113 -82 -190q-74 -69 -174 -69zM521 529v84l146 -126l-146 -125v84h-160v83h160v0zM521 529z" />
    <glyph glyph-name="uniE691" unicode="&#xe691;" 
d="M677 407l-280 308q-10 10 -24 11t-24 -8.5t-11 -23.5t9 -24l260 -286l-260 -286q-4 -4 -6 -9t-2.5 -10t0.5 -10t3.5 -10t6.5 -8q10 -9 23 -9q15 0 25 11l280 308q6 7 8 15t0 16t-8 15z" />
    <glyph glyph-name="uniE692" unicode="&#xe692;" 
d="M347 407l280 308q10 10 24 11t24 -9q7 -6 9.5 -14.5t0.5 -17t-8 -15.5l-260 -286l260 -286q6 -7 8 -15.5t-0.5 -17t-9.5 -14.5q-10 -9 -23 -9q-15 0 -25 11l-280 308q-9 10 -9 23t9 23z" />
    <glyph glyph-name="uniE693" unicode="&#xe693;" 
d="M489 549l-308 -280q-10 -10 -11 -24t9 -24q6 -7 14.5 -9.5t17 -0.5t15.5 8l286 260l286 -260q10 -10 24 -9t23 11t9 23q0 15 -11 25l-308 280q-7 6 -15 8t-16 0t-15 -8z" />
    <glyph glyph-name="uniE694" unicode="&#xe694;" 
d="M489 219l-308 280q-10 10 -11 24t8.5 24t23.5 11t24 -9l286 -260l286 260q10 10 24 9t23 -11t9 -23q0 -7 -3 -13.5t-8 -11.5l-308 -280q-10 -9 -23 -9t-23 9z" />
    <glyph glyph-name="uniE695" unicode="&#xe695;" 
d="M1014.5 -117.5q-6.5 -6.5 -15 -8.5t-17 0t-15.5 9l-281 275q-55 -44 -123 -68t-142 -24q-85 0 -163 32.5t-134.5 88t-90 132.5t-33.5 161.5t33.5 161t90 132t134.5 88.5t163 33q115 0 210 -55.5t149.5 -151t54.5 -208.5q0 -168 -102 -278l281 -273q7 -7 9 -15t0 -16.5
t-8.5 -15zM770 480q0 72 -27 136.5t-73.5 112t-111 75t-137.5 27.5q-96 0 -178.5 -47t-130 -127.5t-47.5 -176.5q0 -57 18 -110.5t51 -96.5t76.5 -75.5t98 -50.5t112.5 -18q97 0 177.5 47.5t126 128t45.5 175.5z" />
    <glyph glyph-name="uniE696" unicode="&#xe696;" 
d="M469 896h86v-1024h-86v1024z" />
    <glyph glyph-name="uniE697" unicode="&#xe697;" 
d="M257 683q-34 0 -60 -26.5t-26 -59.5v-427q0 -31 26.5 -58t57.5 -27h516q30 0 56 26.5t26 58.5v431q0 29 -26.5 55.5t-58.5 26.5h-511zM769 597v-17l-257 -189l-256 189v17h513zM256 172v301l229 -167q12 -10 27.5 -10t26.5 10l230 167v-301h-513z" />
    <glyph glyph-name="uniE698" unicode="&#xe698;" 
d="M938 427h-382v383h-87v-383h-383v-86h383v-383h87v383h382v86z" />
    <glyph glyph-name="uniE699" unicode="&#xe699;" horiz-adv-x="1025" 
d="M1019 454l-120 -153q-4 -4 -9 -5.5t-9.5 -1.5t-9.5 1.5t-8 5.5l-120 153q-6 8 -6 14.5t2 8.5t10 9h109q-35 108 -128.5 182t-217.5 74q-66 0 -126 -23t-106.5 -64t-76.5 -96l-60 24q53 101 152 162t217 61q171 0 291 -107q95 -87 120 -213h91q8 -7 9.5 -15.5t-4.5 -16.5z
M162 469l120 -155q7 -8 5 -16.5t-10 -15.5h-104q32 -112 125.5 -184t213.5 -72q90 0 167.5 42.5t125.5 114.5l61 -24q-28 -44 -65.5 -80.5t-82.5 -62.5t-98 -40t-108 -14q-146 0 -258.5 90.5t-145.5 229.5h-96l-2 2q-3 3 -4 3.5t-2.5 2.5t-2 3.5t-1 3.5t-0.5 3.5t1 3.5
t2.5 4.5t3.5 5.5l120 155q4 5 10.5 6.5t13 0t11.5 -6.5z" />
    <glyph glyph-name="uniE69A" unicode="&#xe69a;" 
d="M640 725h-256q-53 0 -90.5 -37.5t-37.5 -90.5v-426q0 -53 37.5 -90.5t90.5 -37.5h256q53 0 90.5 37.5t37.5 90.5v426q0 35 -17.5 64.5t-47 46.5t-63.5 17zM554 86h-85v85h85v-85zM682 256q0 -8 -3 -16t-9 -14t-14 -9t-16 -3h-256q-12 0 -21.5 5.5t-15.5 15.5t-6 21v341
q0 18 12.5 30.5t30.5 12.5h256q17 0 29.5 -12.5t12.5 -30.5v-341z" />
    <glyph glyph-name="uniE69B" unicode="&#xe69b;" 
d="M921 172q-5 -13 -11.5 -20t-15.5 -7q-4 0 -9 4q-5 3 -9 8t-9 12q-2 4 -4 7l-4 6q-3 5 -6 12l-2 4l-1 3q-1 1 -2 1v1h-1l-2 -2q-28 -73 -63 -106q10 -10 29 -19q20 -8 33 -19t17 -31q-1 -2 -2 -8t-3 -8q-31 -47 -144 -47q-25 0 -53 5q-7 1 -13 2l-12 2q-6 1 -11.5 2.5
t-9.5 2.5q-27 8 -50 15q-2 0 -4.5 1t-3.5 1t-3 1q-9 2 -22 2h-6h-6q-2 0 -4 0.5t-3 0.5q-19 -22 -60.5 -31.5t-80.5 -9.5q-16 0 -33 1q-5 0 -11.5 0.5t-15 1.5t-17.5 2t-17.5 2.5t-16 3.5t-14.5 4q-20 6 -35 19q-16 13 -16 31q0 19 5 28t19 23q2 0 4.5 1t6.5 2t9 3
q13 5 23 6h3l4 1l1 2l-1 1q-23 6 -52 50q-9 15 -16 28.5t-11.5 25t-6.5 21.5l-3 1q-1 0 -2.5 -2t-3.5 -7q-8 -20 -25 -36q-9 -8 -18.5 -12.5t-18.5 -5.5h-1q-2 0 -3 3q-1 2 -2 2q-11 26 -11 48q0 131 120 222q-4 9 -4 25q0 3 1 6.5t2 7.5t2 9q6 13 12 21q-1 11 4 26
q4 14 10 20q0 33 11 67.5t33 70t48 60.5t56 39q67 32 154 32q13 0 25.5 -1t25 -3.5t25.5 -5.5t25.5 -7t25.5 -10q11 -5 22 -10.5t21 -11.5q19 -13 33 -27t27 -33q11 -18 20 -35q1 -2 2 -5l2 -4l2 -6t2.5 -6t2.5 -6t2 -6.5t2 -6.5q2 -7 4.5 -15t4 -14.5t3.5 -12.5
q5 -22 10 -47l1 -3q26 -39 26 -71q0 -3 -1 -7.5t-3 -11.5l-4 -18v-1v-1l2 -2q1 -1 1 -2q37 -55 57 -102q21 -48 21 -99q0 -5 -0.5 -10.5t-1.5 -11.5t-3 -12.5t-4 -13.5z" />
    <glyph glyph-name="uniE69C" unicode="&#xe69c;" 
d="M447 348q-61 15 -121 -11q-59 -27 -86 -80q-27 -54 -4 -107t84 -72q64 -21 128 7q65 27 91 86q25 57 -2 108.5t-90 68.5zM386 163q-4 -5 -7.5 -9.5t-8 -7.5t-9.5 -6t-11 -5q-23 -7 -43 2q-6 3 -11 7t-8.5 9.5t-4.5 12.5q-5 19 7 39q6 9 14.5 15.5t19.5 10.5q23 7 42 -1
q20 -8 26 -28q3 -10 1.5 -20t-7.5 -19zM439 232q-1 -3 -3 -5t-4 -3.5t-5 -2.5q-4 -2 -8.5 -2t-8.5 2q-17 8 -7 25q4 8 12 11t16 0q8 -2 10 -10q2 -4 1.5 -8t-3.5 -7zM873 326q-19 30 -45 47q-27 17 -59 26q-9 3 -10 4q-3 2 -7 4q-4 4 -2.5 7.5t2.5 11.5q26 66 0 102
q-8 11 -21 19t-29.5 11.5t-36.5 3.5q-61 0 -141 -33l-3 -1q-4 -2 -8 -3h-8q-4 1 -5.5 4t0.5 12q25 83 -12 119q-42 42 -140 4q-99 -38 -196 -135q-36 -36 -64 -73t-48 -74q-40 -75 -40 -140q0 -62 37 -114t98 -86t137.5 -53.5t157.5 -19.5q80 0 154 18t129 48q14 7 27 15
t25 16t23 17t21 19q42 37 63 78t21 80q0 18 -5 34.5t-15 31.5zM641 111q-42 -34 -94.5 -54.5t-116.5 -26.5q-83 -8 -157 12q-73 20 -119 62q-23 21 -35.5 45.5t-15.5 51.5q-8 84 76 151.5t211 80.5q84 8 157 -12t119 -62t51 -97q8 -84 -76 -151zM800.5 571q-12.5 14 -28 19
t-33.5 1q-14 -3 -26 5q-6 3 -9.5 8.5t-4.5 12.5q-1 4 -0.5 8.5t1.5 8.5t4 8q7 12 21 15q34 7 68 -4q34 -10 58 -37q23 -27 31 -62q7 -35 -4 -67q-4 -13 -17 -19q-12 -7 -25 -3q-14 5 -20 17t-2 26q6 17 2.5 33t-16 30zM1010 444q-5 -16 -19 -23t-30 -2q-15 5 -22.5 19.5
t-2.5 29.5q16 47 5 98q-10 52 -45 91q-18 19 -39 33t-46 21q-48 15 -98 5q-16 -3 -30 5q-14 9 -17 25q-1 4 -1 8t0.5 7.5t2 7t3.5 7.5q9 13 25 17q70 14 139 -7t119 -77v0q49 -54 64 -127q3 -12 4 -24t1.5 -23.5t0 -23t-2 -23t-4.5 -22.5t-7 -22z" />
    <glyph glyph-name="uniE69D" unicode="&#xe69d;" 
d="M685 553q16 0 34 -2q-23 108 -126 179.5t-235 71.5q-97 0 -179.5 -40t-130.5 -110.5t-48 -153.5q0 -142 143 -242l-36 -108l126 63q7 -1 21 -4t21.5 -4.5t19.5 -3.5t21 -3t20 -2t22 -1q14 0 33 1q-11 38 -11 76q0 117 89 200t216 83zM492 650q20 0 32.5 -12t12.5 -33
q0 -10 -3 -18t-9 -14t-14.5 -9t-18.5 -3q-21 0 -37.5 12.5t-16.5 31.5q0 10 5 18.5t12.5 14.5t17 9t19.5 3zM242 561q-21 0 -37.5 12.5t-16.5 31.5q0 13 8 23.5t20 16t26 5.5q20 0 32 -12t12 -32.5t-12 -32.5t-32 -12zM1024 261q0 70 -42.5 130.5t-112.5 95t-149 34.5
q-127 0 -216 -76t-89 -184t88.5 -184t216.5 -76q36 0 107 18l99 -53l-27 89q125 94 125 206zM621 306q-13 0 -24.5 11t-11.5 25q0 5 2 10.5t5.5 10t8 8t10 5.5t10.5 2q13 0 23.5 -5.5t16 -13.5t5.5 -17q0 -7 -3.5 -13.5t-9 -11.5t-14 -8t-18.5 -3zM818 306q-13 0 -24 11
t-11 25q0 7 3 13.5t8 11.5t11.5 8t12.5 3q19 0 32 -11t13 -25t-12.5 -25t-32.5 -11z" />
    <glyph glyph-name="uniE69E" unicode="&#xe69e;" horiz-adv-x="1025" 
d="M178 765q38 0 64.5 -24t26.5 -59q0 -34 -26.5 -58t-64.5 -24q-13 0 -25 2.5t-22 8t-18.5 13t-14.5 16.5t-9 20t-3 22q0 35 26.5 59t65.5 24zM254 266q-9 -29 -15.5 -45.5t-13.5 -31t-31.5 -66t-54.5 -116.5l-139 88q156 143 188 208q17 35 5.5 58.5t-25.5 35.5t-18 12
l-107 67l58 90q60 -45 80 -62t61 -59q20 -20 27 -48.5t2.5 -59t-17.5 -71.5zM1013 167q-4 -41 -19.5 -73t-36.5 -51t-49 -31.5t-55.5 -17.5t-58 -5.5t-53 1.5t-45.5 6.5t-30.5 6t-11.5 3.5l18 73l77 -16q106 -7 125 77q5 21 3 39v364q2 201 -363 69l55 -15q-7 -22 -45 -69
h312v-64h-175v-80h175v-64h-175v-133q42 14 71 37l-15 58l83 26l69 -170l-102 -43l-18 68q-45 -35 -120 -60t-186 -22q-119 -3 -134 114q-6 45 3 87l5 2h124q0 -5 -2.5 -28t-2 -38.5t7.5 -26.5q8 -12 25 -17t38 -6h7v152h-180v64h180v80h-47q-11 -12 -23 -24.5t-22 -21.5
l-16 -18l-12 -11l-4 -4l-54 48q44 47 101 149q-16 -7 -31 -13t-29 -13q-30 -38 -69 -78q1 0 -21.5 12.5t-44.5 25.5l-23 13q41 36 77.5 98.5t51.5 107.5l16 45l129 -37l-1 -1l-1 -2t-2 -4.5t-2.5 -6t-3.5 -7.5l-5 -9l-4 -10q-3 -5 -6.5 -11t-7.5 -12q356 101 493 -8
q46 -37 54 -83q1 -6 3 -19t6.5 -55t6.5 -88t0 -117t-10 -143z" />
    <glyph glyph-name="uniE69F" unicode="&#xe69f;" 
d="M345 575q12 0 22.5 -5.5t17 -15.5t6.5 -21t-6.5 -20.5t-17 -15t-22.5 -5.5q-19 0 -32.5 12t-13.5 29t13.5 29.5t32.5 12.5zM383 325q-4 -12 -6 -17.5t-6 -14.5t-7.5 -17t-14.5 -30.5t-23 -49.5l-70 43l4 5q3 2 11.5 10t16.5 16t18 18.5t18 20t15 19t11 16.5
q7 17 2.5 28.5t-12.5 17.5l-9 6l-54 34l30 45q41 -31 70 -60q26 -27 6 -90zM762.5 276q-3.5 -36 -23.5 -57.5t-45.5 -27t-51 -5t-42.5 4t-17 4.5l9 37l38 -9q20 -1 34.5 4.5t19.5 14t8.5 18t2.5 15.5t0 6v183q0 100 -182 34l27 -8q-3 -10 -22 -34h156v-32h-88v-40h88v-32
h-88v-67q22 8 36 19l-7 29l41 13l34 -85l-50 -22l-10 34q-56 -43 -152 -40q-68 -2 -68 71l2 29l2 1h63q-1 -3 -2 -14t-0.5 -19t3.5 -13q2 -4 6 -6t8.5 -3.5t8.5 -2t8 -0.5h4v76h-90v32h90v40h-23l-39 -39l-27 23q9 10 19 24.5t17 26t14 24.5q-20 -8 -29 -13q-8 -9 -16.5 -19
t-18.5 -20l-44 26q7 6 14.5 14.5t13 17t11.5 18t10 18.5t8 17.5t6.5 15.5t4.5 12.5t3 8.5l1 3l64 -18q0 -2 -1 -4.5t-5.5 -11t-9.5 -16.5q53 15 96.5 20.5t71 3t48.5 -10.5t31.5 -17.5t17 -19.5t7.5 -15t1 -6q1 -4 2 -10t3.5 -27.5t3 -44t-0.5 -58t-4.5 -71.5zM0 384
q0 -104 40.5 -199t109 -163.5t163 -109t198.5 -40.5t199 40.5t164 109t109.5 163.5t40.5 199t-40.5 199t-109.5 163.5t-164 109t-199 40.5t-198.5 -40.5t-163 -109t-109 -163.5t-40.5 -199zM44 385q0 96 37 182.5t100 149.5t149.5 100t182 37t182 -37t149 -100t99.5 -149.5
t37 -182t-37 -182.5t-99.5 -150t-149 -100t-182.5 -37q-176 0 -308 116q-127 112 -154 278q-6 38 -6 75z" />
    <glyph glyph-name="uniE6A0" unicode="&#xe6a0;" 
d="M757 257q-3 -8 -6.5 -12t-9.5 -4q-1 0 -2.5 0.5t-2.5 1.5q-3 2 -6 5q-2 3 -5 7q-1 2 -2.5 4t-2.5 4q0 1 -1 3l-2 4l-2 4l-1 1h-1l-1 -1q-9 -22 -18.5 -38t-19.5 -25q6 -6 18 -11l10 -6q5 -3 9 -6q8 -7 10 -19q0 -1 -1 -4l-2 -6q-9 -13 -30.5 -20t-55.5 -7q-15 0 -32 2.5
t-28 5.5q-17 5 -29 9q-6 1 -7 2q-5 1 -13 1h-12q-11 -13 -36 -18.5t-48 -5.5h-11h-9q-2 0 -4 0.5t-4.5 0.5t-5.5 1h-6q-3 1 -6 1q-6 1 -11 1.5t-9.5 2t-8.5 2.5t-8 2.5t-7 4t-7 4.5q-4 4 -6.5 8.5t-2.5 10.5q0 11 3 17q1 2 4 5.5t8 7.5q3 1 11 4q4 2 8 2.5t6 1.5h4l1 1l-1 1
q-13 3 -30 30t-21 45l-2 1q-1 0 -3 -6q-1 -2 -2 -3.5t-1.5 -3t-2 -3t-2.5 -3.5l-2 -2q-1 -2 -2.5 -3.5t-3.5 -2.5q-10 -10 -22 -11l-2 1q0 1 -1 2q-3 8 -5 15t-2 13q0 79 72 134q-2 5 -2 15l3 14q1 2 2 4.5t2.5 4.5t2.5 3q0 7 2 16q2 8 7 12q0 20 6.5 40.5t19.5 41.5
q26 43 62 60q40 19 93 19h11l10 -2q6 0 11.5 -1t10.5 -2t10.5 -3t11 -3.5t11.5 -4.5q7 -3 13 -6.5t12 -6.5q12 -8 21 -16q8 -9 15 -20t12 -21q3 -5 5 -11t5 -13q4 -13 7 -26q1 -6 2.5 -13t3.5 -15v-1q8 -12 12 -22.5t4 -20.5q0 -2 -0.5 -4.5t-1.5 -6.5q-3 -8 -3 -11v-1
q1 0 1 -0.5t1 -0.5v-1v-1q22 -32 34 -61q13 -29 13 -60q0 -12 -6 -28zM0 384q0 -104 40.5 -199t109 -163.5t163 -109t198.5 -40.5t199 40.5t164 109t109.5 163.5t40.5 199t-40.5 199t-109.5 163.5t-164 109t-199 40.5t-198.5 -40.5t-163 -109t-109 -163.5t-40.5 -199z
M44 385q0 96 37 182.5t100 149.5t149.5 100t182 37t182 -37t149 -100t99.5 -149.5t37 -182t-37 -182.5t-99.5 -150t-149 -100t-182.5 -37q-176 0 -308 116q-127 112 -154 278q-6 38 -6 75z" />
    <glyph glyph-name="uniE6A1" unicode="&#xe6a1;" 
d="M479 366q-30 8 -60 -6q-30 -13 -43 -39q-14 -28 -2 -54t42 -36q16 -5 32 -4.5t32 7.5q32 14 45 43t-0.5 54.5t-45.5 34.5zM449 273q-7 -10 -18 -13q-3 -1 -6 -1.5t-5.5 -0.5t-5 0.5t-4.5 1.5q-10 5 -12.5 15t3.5 19q6 10 17 14q6 1 11 1t10 -2q10 -4 13 -14q1 -5 0.5 -10
t-3.5 -10zM476 308q-2 -4 -6.5 -5.5t-8.5 -0.5q-8 4 -4 13q2 4 6.5 5.5t8.5 0.5q2 -1 3 -2.5t2 -3.5q1 -4 -1 -7zM693 355q-10 15 -23 23q-7 5 -14 8t-16 6l-4 1q-2 1 -4 3q-2 1 -1 3l1 6q7 16 7 29t-7 22q-13 17 -43 17q-16 0 -33.5 -4t-37.5 -13h-1l-4 -1q-2 -1 -5 0
q-2 0 -2 2q-1 2 0 5q13 42 -6 60q-10 11 -28 11.5t-42 -9.5q-49 -19 -98 -67q-18 -19 -32 -37t-24 -37q-20 -37 -20 -70q0 -16 4.5 -30t14.5 -27q18 -26 48 -43q11 -6 22 -11t22.5 -9t24.5 -7t26 -5t26 -3t27 -1q40 0 77 9q37 8 65 23q27 15 48 34q20 19 31 39q10 21 10 40
q0 18 -9 33zM577 247q-21 -17 -47.5 -27t-58.5 -13q-42 -4 -78 6q-37 10 -60 31t-25 49q-4 41 37.5 75t105.5 41q21 2 40.5 0.5t37.5 -6.5q37 -10 60 -31.5t25 -48.5q4 -42 -37 -76zM656 477q-4 5 -9 7.5t-10 3.5t-11 -1q-7 -1 -13 3q-3 2 -5 4.5t-2 5.5q-2 7 2 13t10 7
q4 1 7.5 1.5t7 0.5t6.5 -0.5t6.5 -1t6.5 -1.5q6 -2 11 -4.5t9.5 -6.5t8.5 -8q12 -13 15.5 -30.5t-1.5 -34.5q-3 -6 -8 -9q-7 -3 -13 -1q-7 2 -10 8q-1 3 -1.5 6t0.5 7q3 9 1 17t-8 14zM761 414q-2 -8 -9.5 -11.5t-15 -1t-11 9.5t-1.5 15q8 24 3 49q-2 9 -5 16.5t-7.5 15
t-10.5 13.5l-10 10q-4 4 -10 7l-10 6q-6 3 -12 5q-25 7 -50 2q-4 -1 -7.5 -0.5t-7.5 3.5q-6 4 -8 12t2 15q3 3 6 5t7 3q35 8 70 -3q17 -5 32 -15t27 -23v0q12 -14 20 -30t12 -34q7 -36 -4 -69zM0 384q0 -104 40.5 -199t109 -163.5t163 -109t198.5 -40.5t199 40.5t164 109
t109.5 163.5t40.5 199t-40.5 199t-109.5 163.5t-164 109t-199 40.5t-198.5 -40.5t-163 -109t-109 -163.5t-40.5 -199zM44 385q0 96 37 182.5t100 149.5t149.5 100t182 37t182 -37t149 -100t99.5 -149.5t37 -182t-37 -182.5t-99.5 -150t-149 -100t-182.5 -37q-176 0 -308 116
q-127 112 -154 278q-6 38 -6 75z" />
    <glyph glyph-name="uniE6A2" unicode="&#xe6a2;" 
d="M598 469q8 0 18 -2q-5 22 -16.5 41.5t-29 34.5t-38.5 26.5t-46 17.5t-51 6q-74 0 -126.5 -44t-52.5 -108q0 -71 72 -121l-18 -54l62 31q46 -8 63 -8h6h5h6q-3 9 -4.5 18.5t-1.5 19.5q0 59 44.5 100.5t107.5 41.5zM502 517q5 0 9 -1.5t7 -4.5t5 -7t2 -9q0 -10 -6.5 -16.5
t-16.5 -6.5t-18.5 6.5t-8.5 16.5q0 16 20 21q4 1 7 1zM377 472q-5 0 -10 2t-8.5 4.5t-6 7t-2.5 9.5q0 9 8 15.5t19 6.5q10 0 16 -6t6 -16q0 -7 -2.5 -12t-8 -8t-11.5 -3zM768 323q0 53 -45.5 91.5t-106.5 38.5q-31 0 -59.5 -10.5t-49 -28t-32 -41.5t-11.5 -50
q0 -36 20 -65.5t55 -47t77 -17.5q12 0 24 2t30 7l49 -27l-14 45q19 14 32.5 29.5t22 34.5t8.5 39zM567 345q-7 0 -12.5 5.5t-5.5 12.5t5.5 12.5t12.5 5.5q6 0 11.5 -2.5t8 -6.5t2.5 -9t-2.5 -9t-8 -6.5t-11.5 -2.5zM665 345q-4 0 -8.5 2.5t-7 7t-2.5 8.5q0 7 5.5 12.5
t12.5 5.5q10 0 16 -5.5t6 -12.5q0 -5 -2.5 -9t-7.5 -6.5t-12 -2.5zM0 384q0 -104 40.5 -199t109 -163.5t163 -109t198.5 -40.5t199 40.5t164 109t109.5 163.5t40.5 199t-40.5 199t-109.5 163.5t-164 109t-199 40.5t-198.5 -40.5t-163 -109t-109 -163.5t-40.5 -199zM44 385
q0 96 37 182.5t100 149.5t149.5 100t182 37t182 -37t149 -100t99.5 -149.5t37 -182t-37 -182.5t-99.5 -150t-149 -100t-182.5 -37q-176 0 -308 116q-127 112 -154 278q-6 38 -6 75z" />
    <glyph glyph-name="uniE6A3" unicode="&#xe6a3;" 
d="M768 446q0 3 -0.5 3.5t-2.5 0.5h-3h-56h-97l-22 40l-63 120h-11l-57 -120l-23 -40h-96h-81v-3l32 -22l90 -80l-21 -181q0 -5 2 -5.5t11 -0.5l148 91l148 -91q5 0 11 6l-28 181l85 73zM394 272l164 134l-153 26h233l-142 -128l147 -32h-249zM0 384q0 -104 40.5 -199
t109 -163.5t163 -109t198.5 -40.5t199 40.5t164 109t109.5 163.5t40.5 199t-40.5 199t-109.5 163.5t-164 109t-199 40.5t-198.5 -40.5t-163 -109t-109 -163.5t-40.5 -199zM44 385q0 96 37 182.5t100 149.5t149.5 100t182 37t182 -37t149 -100t99.5 -149.5t37 -182
t-37 -182.5t-99.5 -150t-149 -100t-182.5 -37q-176 0 -308 116q-127 112 -154 278q-6 38 -6 75z" />
    <glyph glyph-name="uniE6A4" unicode="&#xe6a4;" 
d="M1024 507q-8 9 -11 9h-114h-193l-45 80l-125 240h-22l-114 -239l-45 -81h-193h-162v-5l64 -46l179 -159l-40 -363q0 -10 7 -11h18l296 181l295 -181q9 0 12 1.5t11 9.5l-56 363l170 146zM275 159l329 269l-306 52h465l-283 -257l294 -64h-499z" />
    <glyph glyph-name="uniE6A5" unicode="&#xe6a5;" 
d="M86 769v-729h122v182h122v-182h163v729h-407zM208 388h-81v78h81v-78zM208 510h-81v78h81v-78zM208 632h-81v78h81v-78zM330 510h-81v78h81v-78zM452 266h-81v78h81v-78zM534 629v-588h122v181h121v-181h163v588h-406zM655 388h-81v78h81v-78zM655 510h-81v78h81v-78z
M777 510h-81v78h81v-78zM899 266h-81v78h81v-78z" />
    <glyph glyph-name="uniE6A6" unicode="&#xe6a6;" 
d="M545 721v56q0 15 -10 25t-24.5 10t-24.5 -10t-10 -25v-56q-161 -13 -273.5 -123t-118.5 -264q0 -6 5 -8q2 0 4.5 1t3.5 3q11 22 31 39t45.5 26t52.5 9q47 0 85 -25t52 -65q1 -4 6 -4t7 4q7 22 22 39t34.5 29t43.5 17v-321q0 -6 -1.5 -12t-4 -11t-6 -9.5t-8 -8t-10 -6
t-11 -4t-12.5 -1.5q-21 0 -36.5 15.5t-15.5 36.5q0 7 -2.5 13.5t-7.5 11t-11.5 7.5t-13.5 3q-14 0 -24 -10t-10 -25q0 -50 35.5 -85.5t86 -35.5t86 35.5t35.5 85.5v322q24 -5 45 -16.5t36 -29.5t23 -40q1 -4 6 -4t7 4q5 16 15 30t23 25t28.5 19t33 12t36.5 4q41 0 76.5 -20
t52.5 -54q3 -5 8 -4q6 2 5 8q-4 102 -57.5 188t-142.5 138.5t-195 60.5z" />
    <glyph glyph-name="uniE6A7" unicode="&#xe6a7;" 
d="M126 207l-124 389h96l47 -165q6 -22 10 -35.5t9 -32.5t9 -36t7 -34h2q14 70 34 137l50 166h94l-131 -389h-103zM446 297q45 -24 97 -24q20 0 34 5.5t21 15t7 22.5q0 17 -15 29t-50 25q-51 18 -79 46.5t-28 69.5q0 51 40 83.5t106 32.5q31 0 55.5 -5t43.5 -14l-19 -71
q-35 18 -81 18q-27 0 -41.5 -10.5t-14.5 -25.5q0 -18 15.5 -29t56.5 -28q52 -18 76 -46t24 -70q0 -52 -40 -86t-116 -34q-31 0 -61.5 7t-48.5 17zM788 307l-28 -100h-90l118 389h115l121 -389h-94l-31 100h-111zM886 373l-24 82q-2 8 -5 18.5t-5 19t-4.5 19.5t-4.5 18h-2
q-10 -47 -17 -75l-24 -82h86zM360 596h-13v-37zM390 596l-43 -129v-260h88v389h-45z" />
    <glyph glyph-name="uniE6A8" unicode="&#xe6a8;" 
d="M961 317q-37 37 -345 176l6 94q0 25 -8.5 62t-22.5 73.5t-35 62t-42 25.5q-28 0 -54 -43t-40 -94.5t-14 -85.5l6 -92q-311 -141 -349 -178q-12 -13 -17 -27t-2.5 -25.5t7 -20.5t8.5 -15l4 -5q199 42 271 42h94l11 -156q-41 -32 -71 -58t-30 -32.5t1.5 -18.5t2.5 -21t1 -8
q77 9 119 11q21 -25 52 -25t52 25q12 -1 28 -2.5t30.5 -3t27.5 -2.5t21 -2l8 -1q4 33 4 48q0 11 -96 87l11 159h90q20 0 55.5 -4t71.5 -10.5t69 -12.5t54 -10l21 -5q1 2 4 5.5t8.5 14t7 21t-3 25t-16.5 27.5z" />
    <glyph glyph-name="uniE6A9" unicode="&#xe6a9;" 
d="M815 344v202h-212v92h-171v-92h-212v-202h-174l124 -259h681l106 259h-142zM373 380h-88v88h88v-88zM560 380h-88v88h88v-88zM751 380h-87v88h87v-88z" />
    <glyph glyph-name="uniE6AA" unicode="&#xe6aa;" 
d="M863 451h-12q-2 9 -4 16.5t-4 14.5q-2 9 -13 34t-28.5 56.5t-32.5 48.5q-32 38 -94.5 55.5t-162.5 17.5q-195 0 -257 -73q-15 -17 -32.5 -48.5t-28.5 -56.5t-13 -34q-5 -18 -8 -31h-12q-81 0 -81 -68q0 -6 3 -12t8.5 -10t11.5 -5l49 -6q-18 -106 -18 -196v-82
q0 -11 7.5 -19t19.5 -8h54q3 0 6.5 1t6.5 3t5.5 4.5t4.5 5.5t3 6.5t1 6.5v27h540v-27q0 -11 8 -19t19 -8h54q12 0 20 8t8 19v82q0 90 -19 196l49 6q10 2 17 9.5t7 17.5q0 29 -18 48.5t-64 19.5zM241.5 181q-22.5 0 -38 15.5t-15.5 38t15.5 38.5t38 16t38.5 -16t16 -38.5
t-16 -38t-38.5 -15.5zM512 343q-187 0 -298 43q28 138 82 200q46 54 216 54t216 -54q54 -63 82 -200q-111 -43 -298 -43zM782 181q-14 0 -26.5 7t-20 19.5t-7.5 27.5q0 8 3 16.5t8 15t11.5 11.5t15 8t16.5 3q23 0 38.5 -16t15.5 -38.5t-15.5 -38t-38.5 -15.5z" />
    <glyph glyph-name="uniE6AB" unicode="&#xe6ab;" 
d="M636 8l-125 112q-53 50 -53 133v381l-45 44q-15 16 -36.5 16t-37.5 -16l-38 -38l-199 -199q-16 -15 -16 -36.5t16 -36.5l321 -321q17 -16 42 -27.5t46 -11.5h125zM892 761h-335q-14 0 -24 -5.5t-15.5 -16t-5.5 -24.5v-467q0 -14 3.5 -31t11.5 -33t18 -26l140 -136
q7 -7 17.5 -11t20.5 -4t20 3.5t18 10.5l-1 1h1l148 136q7 7 13 18.5t9 24t5 24.5t2 23v467q0 9 -2 16t-6 12.5t-9.5 9.5t-13 6t-15.5 2zM723 85q-22 0 -38 16t-16 38t16 38t38 16t38 -16t16 -38t-16 -38t-38 -16z" />
    <glyph glyph-name="uniE6AC" unicode="&#xe6ac;" 
d="M1023 421l-30 18l-6 -2h-49q6 14 7 20h78v46h-67l5 33l-47 8q-2 -21 -5.5 -41t-8.5 -37v25h-35v49l-48 4v-53h-36v-46h21q0 -42 -2.5 -69.5t-11 -62t-24.5 -56.5q9 -6 18.5 -14.5t15.5 -17.5q12 17 21 38q4 -8 6.5 -18.5t2.5 -19.5q18 -1 29 1t16.5 5.5t10.5 10.5
q3 6 6 24t4.5 40t2.5 43.5t2 35.5v14l1 15h-54q0 4 2 31h45l-1 -2q-5 -11 -8 -16l9 -5q5 -2 10 -5.5t9 -6.5v-15h48l-7 -11h-14v-31h-35v-43h35v-37q0 -4 -6 -5h-7q-3 0 -9.5 0.5t-12.5 0.5q2 -5 4.5 -10.5t4 -11.5t2.5 -12t2 -10q43 0 55.5 9t12.5 38v38h38v43h-38v8z
M854 370q-2 -49 -4 -71t-5 -27q-2 -3 -4 -4t-5 -1q-10 0 -16 1q9 22 14.5 48t8.5 54h11zM784 419q-3 3 -8 6.5t-10.5 6.5t-11.5 6t-12 5.5t-11 4.5l-28 -36q35 -15 52 -32zM792 510q-18 16 -54 30l-28 -36q36 -16 53 -33zM784 338l-40 24q-17 -57 -40 -110l44 -23l3 10
q17 42 33 99zM505 460l-52 3q-13 -46 -93 -54q5 -5 10 -11.5t9.5 -14t5.5 -13.5q96 15 120 90zM680 421h-79q-8 0 -10 1.5t-2 8.5v29l-49 3v-38q0 -28 11 -38.5t43 -10.5h80zM372 512h296v-40h-296v40zM548 504h-56v40l56 -4v-36zM372 480h48v-40h-48v40zM620 480h48v-40
h-48v40zM372 364v-45h241q-4 -44 -28 -44q-28 0 -48 1q7 -10 12 -25t5 -26q29 0 45.5 3.5t33.5 16.5t25 42t10 77h-296zM476 399q0 -66 -30 -95.5t-86 -38.5q21 -20 28 -41q33 7 58 19t44.5 32t30 50t12.5 71zM161 544q-33 0 -62.5 -13t-50.5 -34t-34 -51t-13 -62
q0 -66 47 -113t113 -47q32 0 61.5 13t51 34t34.5 51t13 62q0 66 -47 113t-113 47zM161 288q-13 0 -25.5 3.5t-23 9.5t-19.5 15t-15 19.5t-9.5 23t-3.5 25.5q0 40 28 68t68 28t68 -28t28 -68t-28 -68t-68 -28zM311 230l-147 84q-3 2 0 5l62 62q1 1 2.5 1t2.5 -1l84 -147
q1 -2 -0.5 -3.5t-3.5 -0.5z" />
    </font>
</defs>
</svg>
